<?xml version="1.0" encoding="utf-8"?>
<!-- Generator: Adobe Illustrator 19.0.0, SVG Export Plug-In . SVG Version: 6.00 Build 0)  -->
<svg version="1.1" id="Layer_1" xmlns="http://www.w3.org/2000/svg" xmlns:xlink="http://www.w3.org/1999/xlink" x="0px" y="0px"
	 viewBox="0 0 300 300" style="enable-background:new 0 0 300 300;" xml:space="preserve">
<style type="text/css">
	.st0{fill:#E6E7E8;}
</style>
<g>
	<g>
		<path id="XMLID_37_" class="st0" d="M279.1,90.6c-0.1,0-8-0.8-18.8-4.1c-5.6-1.7-18.9-12.5-31-22.8c-4.7-4-9.2-7.9-12.9-11.3
			c-1.9-1.6-3.7-3.2-5.4-4.8c-0.3,0.2-0.6,0.5-0.8,0.7l-1.3,1.3L154,104.3l-21.2,21.1l0.1,0.1l-8.6,8.5c-0.2,0.2-0.4,0.3-0.6,0.4
			c-0.4,0.2-0.8,0.4-1.2,0.4c-0.7,0-1.4-0.3-1.9-0.8c-1-1.1-1-2.8,0-3.8l8.6-8.5l-28.8-28.7c2.4-5.1,3.9-10.7,3.9-16.7
			c0-21.3-17.4-38.7-38.7-38.7c-21.3,0-38.7,17.4-38.7,38.7c0,21.4,17.4,38.7,38.7,38.7c6.3,0,12.3-1.6,17.6-4.3l32.2,32.1
			l-96.8,96.4c-4.8,4.8-4.8,12.6,0,17.5c2.4,2.4,5.6,3.6,8.7,3.6c3.2,0,6.3-1.2,8.7-3.6l96.9-96.4l14.7,14.7l-0.1,0.1
			c-1.2,1.2-1.9,2.9-1.9,4.6c0,1.7,0.7,3.4,1.9,4.6l73,72.7c3.5,3.5,8.3,5.5,13.3,5.5c5,0,9.8-2,13.3-5.5c7.3-7.3,7.3-19.3,0-26.6
			l-72.9-72.6c-2.5-2.4-6.4-2.5-8.9-0.1l-14.8-14.8l42.1-42c13.5,11.7,21.6,23.1,25.8,30.1c0.3,0.5,0.5,0.8,0.6,1
			c0.6,1,3.2,6.8,6.7,16.2l2.1,5.8l5.7-2.3c42-17.2,50.7-52.4,51-53.9l1.5-6.6L279.1,90.6z M92.3,85.1c-2.7,8.2-9.1,14.8-17.2,17.8
			c-3,1.1-6.3,1.7-9.7,1.7c-15.6,0-28.3-12.7-28.3-28.3c0-15.6,12.7-28.3,28.3-28.3c15.6,0,28.3,12.7,28.3,28.3
			C93.7,79.4,93.2,82.3,92.3,85.1z M264.4,122.3l-4.6-0.5l0.8,4.7c-7,7.2-16.6,14.4-29.6,19.8c-0.6-1.6-1.1-3.1-1.7-4.6
			c30.9-13.5,41.6-37.4,44.5-45.8c2.9,0.5,4.7,0.7,4.7,0.7S275.6,108.9,264.4,122.3z"/>
	</g>
	<g>
		<path id="XMLID_13_" class="st0" d="M78.9,58.4c-0.5-0.5-1.1-1-1.7-1.5c-0.6-0.5-1.4-1-2.2-1.5c-1.7-0.9-3.6-1.9-6.2-2.4
			c-0.7-0.2-1.2-0.2-1.8-0.3l-0.9-0.1c-0.5,0-0.7,0-1.1,0c-1.3-0.1-2.7,0-4.1,0.2c-0.8,0.1-1.7,0.3-2.5,0.5c-2,0.5-4.1,1.4-6,2.6
			c-2.7,1.7-5.2,4-7,6.8c-1.2,1.7-2,3.6-2.7,5.6c-0.4,1.3-0.8,2.6-1,3.9l-0.2,1.4l-0.1,1.1l0,0.6l0,0.3l0,0.3l0,0.2l0.1,1.3
			c0,0.9,0.2,1.7,0.3,2.5c0.1,0.8,0.4,1.7,0.6,2.5c0.9,3.2,2.6,6.2,4.7,8.6c2.1,2.4,4.6,4.2,7.2,5.5c2.6,1.3,5.2,1.9,7.7,2.1
			c0.6,0,1.3,0.1,1.8,0.1c0.5,0,1.1,0,1.6-0.1c1.2-0.1,2.1-0.3,3.1-0.5c0.5-0.1,1-0.3,1.4-0.4c1.3-0.4,2.3-0.8,3.2-1.3
			c1.3-0.6,2-1.2,2.6-1.6c0.6-0.4,0.9-0.6,0.9-0.6s-0.4,0.1-1,0.3c-0.7,0.2-1.7,0.6-2.9,0.8c-1.2,0.3-2.8,0.4-4.5,0.5
			c-0.1,0-0.3,0-0.4,0c-0.8,0-1.6,0-2.3-0.2c-0.5-0.1-1-0.1-1.6-0.2c-0.5-0.1-0.9-0.2-1.4-0.4c-1.9-0.5-4-1.4-5.9-2.7
			c-1.9-1.3-3.6-2.9-5.1-4.9c-1.4-2-2.5-4.2-3.1-6.7c-0.3-1.2-0.5-2.5-0.5-3.7l0-0.9l0-0.1l0,0v0c0-0.1,0,0.2,0-0.1l0,0.1v0l0-0.1
			l0-0.2l0-0.6l0.1-1.1l0.1-0.9c0.3-2.3,1.3-4.9,2.5-7c1.3-2.1,3-4,5-5.4c2-1.4,4.1-2.5,6.3-3.1c0.7-0.2,1.4-0.3,2.2-0.5
			c0.4-0.1,0.7-0.1,1.1-0.2l0.7-0.1l0.9,0c0.6,0,1.2-0.1,1.6,0c1.9,0,3.9,0.5,5.5,0.9c0.8,0.3,1.6,0.6,2.3,0.9
			c0.7,0.3,1.3,0.6,1.9,0.9c1.1,0.6,2,1.2,2.5,1.6c0.6,0.4,0.9,0.6,0.9,0.6s-0.2-0.3-0.6-0.9C80.6,60.2,79.9,59.4,78.9,58.4z"/>
	</g>
</g>
</svg>
