<?xml version="1.0" encoding="utf-8"?>
<!-- Generator: Adobe Illustrator 21.1.0, SVG Export Plug-In . SVG Version: 6.00 Build 0)  -->
<svg version="1.1" id="OBJECTS" xmlns="http://www.w3.org/2000/svg" xmlns:xlink="http://www.w3.org/1999/xlink" x="0px" y="0px"
	 viewBox="0 0 803 385.5" style="enable-background:new 0 0 803 385.5;" xml:space="preserve">
<style type="text/css">
	.st0{clip-path:url(#SVGID_2_);}
	.st1{fill:#0CEBEB;}
	.st2{fill:url(#SVGID_3_);}
	.st3{fill:url(#SVGID_4_);}
	.st4{fill:url(#SVGID_5_);}
	.st5{fill:url(#SVGID_6_);}
	.st6{fill:url(#SVGID_7_);}
	.st7{fill:url(#SVGID_8_);}
	.st8{fill:url(#SVGID_9_);}
	.st9{fill:url(#SVGID_10_);}
	.st10{fill:url(#SVGID_11_);}
	.st11{fill:none;}
	.st12{fill:url(#SVGID_12_);}
	.st13{fill:url(#SVGID_13_);}
	.st14{fill:url(#SVGID_14_);}
	.st15{fill:url(#SVGID_15_);}
	.st16{fill:url(#SVGID_16_);}
	.st17{fill:url(#SVGID_17_);}
	.st18{fill:url(#SVGID_18_);}
	.st19{fill:url(#SVGID_19_);}
	.st20{fill:url(#SVGID_20_);}
	.st21{fill:url(#SVGID_21_);}
	.st22{fill:url(#SVGID_22_);}
	.st23{fill:url(#SVGID_23_);}
	.st24{fill:none;stroke:#FFFFFF;stroke-width:0.5;stroke-miterlimit:10;}
	.st25{display:none;}
	.st26{fill:url(#SVGID_24_);}
</style>
<g>
	<defs>
		<rect id="SVGID_1_" y="-82.1" width="803" height="803"/>
	</defs>
	<clipPath id="SVGID_2_">
		<use xlink:href="#SVGID_1_"  style="overflow:visible;"/>
	</clipPath>
	<g class="st0">
		<polygon class="st1" points="370.4,589.8 397.5,623.1 410.3,585 		"/>
		
			<linearGradient id="SVGID_3_" gradientUnits="userSpaceOnUse" x1="1965.2797" y1="40.7925" x2="2107.0327" y2="-100.9605" gradientTransform="matrix(-1 0 0 -1 2842.8477 240.4543)">
			<stop  offset="0" style="stop-color:#5E83A5"/>
			<stop  offset="1" style="stop-color:#74EBD5"/>
		</linearGradient>
		<polygon class="st2" points="871.8,391.4 871.8,193.9 715,176.3 748.1,353.7 		"/>
		
			<linearGradient id="SVGID_4_" gradientUnits="userSpaceOnUse" x1="2308.5222" y1="68.6689" x2="2110.6909" y2="-129.1624" gradientTransform="matrix(-1 0 0 -1 2842.8477 240.4543)">
			<stop  offset="0" style="stop-color:#74EBD5"/>
			<stop  offset="0.2068" style="stop-color:#73E7D3"/>
			<stop  offset="0.4006" style="stop-color:#71DCCE"/>
			<stop  offset="0.5892" style="stop-color:#6DC9C5"/>
			<stop  offset="0.7746" style="stop-color:#67AEB9"/>
			<stop  offset="0.956" style="stop-color:#608CA9"/>
			<stop  offset="1" style="stop-color:#5E83A5"/>
		</linearGradient>
		<polygon class="st3" points="748.1,353.7 715,176.3 659.1,47 504.5,385.9 504.5,391.4 		"/>
		
			<linearGradient id="SVGID_5_" gradientUnits="userSpaceOnUse" x1="2035.1381" y1="-28.6232" x2="2245.1953" y2="-238.6806" gradientTransform="matrix(-1 0 0 -1 2842.8477 240.4543)">
			<stop  offset="0" style="stop-color:#5E83A5"/>
			<stop  offset="1" style="stop-color:#74EBD5"/>
		</linearGradient>
		<polygon class="st4" points="871.8,391.4 715,176.3 504.5,385.9 		"/>
		
			<linearGradient id="SVGID_6_" gradientUnits="userSpaceOnUse" x1="2353.929" y1="116.8178" x2="2215.0132" y2="-22.0979" gradientTransform="matrix(-1 0 0 -1 2842.8477 240.4543)">
			<stop  offset="0" style="stop-color:#74EBD5"/>
			<stop  offset="1" style="stop-color:#5E83A5"/>
		</linearGradient>
		<polygon class="st5" points="659.1,47 477.2,135.4 504.5,385.9 		"/>
		
			<linearGradient id="SVGID_7_" gradientUnits="userSpaceOnUse" x1="2049.4873" y1="353.297" x2="2049.4873" y2="46.5919" gradientTransform="matrix(-1 0 0 -1 2842.8477 240.4543)">
			<stop  offset="0" style="stop-color:#5E83A5"/>
			<stop  offset="1" style="stop-color:#74EBD5"/>
		</linearGradient>
		<polygon class="st6" points="715,176.3 871.8,-112.8 871.8,193.9 		"/>
		
			<linearGradient id="SVGID_8_" gradientUnits="userSpaceOnUse" x1="2143.5762" y1="263.0378" x2="2045.688" y2="206.5221" gradientTransform="matrix(-1 0 0 -1 2842.8477 240.4543)">
			<stop  offset="0" style="stop-color:#4A72B2"/>
			<stop  offset="0.5384" style="stop-color:#587EA9"/>
			<stop  offset="0.9949" style="stop-color:#5E83A5"/>
		</linearGradient>
		<polygon class="st7" points="715,176.3 659.1,47 871.8,-112.8 		"/>
		
			<linearGradient id="SVGID_9_" gradientUnits="userSpaceOnUse" x1="2425.5049" y1="465.7382" x2="2035.9971" y2="240.8557" gradientTransform="matrix(-1 0 0 -1 2842.8477 240.4543)">
			<stop  offset="0" style="stop-color:#74EBD5"/>
			<stop  offset="1" style="stop-color:#5E83A5"/>
		</linearGradient>
		<path class="st8" d="M659.1,47c-18.2,0-306.7-159.9-306.7-159.9h519.3L659.1,47z"/>
		
			<linearGradient id="SVGID_10_" gradientUnits="userSpaceOnUse" x1="2333.3779" y1="279.7994" x2="2417.1167" y2="134.7595" gradientTransform="matrix(-1 0 0 -1 2842.8477 240.4543)">
			<stop  offset="0" style="stop-color:#5E83A5"/>
			<stop  offset="0.1759" style="stop-color:#557CAB"/>
			<stop  offset="0.5022" style="stop-color:#4D74B0"/>
			<stop  offset="1" style="stop-color:#4A72B2"/>
		</linearGradient>
		<polygon class="st9" points="477.2,135.4 352.4,-112.8 659.1,47 		"/>
		
			<linearGradient id="SVGID_11_" gradientUnits="userSpaceOnUse" x1="2300.0181" y1="67.1526" x2="2445.9651" y2="-185.6349" gradientTransform="matrix(-1 0 0 -1 2842.8477 240.4543)">
			<stop  offset="0" style="stop-color:#5E83A5"/>
			<stop  offset="1" style="stop-color:#74EBD5"/>
		</linearGradient>
		<polygon class="st10" points="504.5,391.4 477.2,135.4 336.8,391.4 		"/>
		<g>
			<polygon class="st11" points="748.1,353.7 715,176.3 659.1,47 504.5,391.4 504.5,391.4 			"/>
			<polygon class="st11" points="871.8,391.4 715,176.3 504.5,391.4 			"/>
			<polygon class="st11" points="659.1,47 477.2,135.4 504.5,391.4 			"/>
			<polygon class="st11" points="715,176.3 871.8,-112.8 871.8,193.9 			"/>
			<polygon class="st11" points="715,176.3 659.1,47 871.8,-112.8 			"/>
			<path class="st11" d="M659.1,47c-18.2,0-306.7-159.9-306.7-159.9h519.3L659.1,47z"/>
			<polygon class="st11" points="477.2,135.4 352.4,-112.8 659.1,47 			"/>
			<polygon class="st11" points="504.5,391.4 477.2,135.4 336.8,391.4 			"/>
		</g>
		
			<linearGradient id="SVGID_12_" gradientUnits="userSpaceOnUse" x1="1964.8478" y1="-462.0663" x2="2108.6816" y2="-605.9003" gradientTransform="matrix(-1 0 0 -1 2842.8477 240.4543)">
			<stop  offset="0" style="stop-color:#5E83A5"/>
			<stop  offset="1" style="stop-color:#74EBD5"/>
		</linearGradient>
		<polygon class="st12" points="873.5,895.6 873.5,698 711.4,680.5 745.7,857.9 		"/>
		
			<linearGradient id="SVGID_13_" gradientUnits="userSpaceOnUse" x1="2316.98" y1="-436.8089" x2="2117.6509" y2="-636.1381" gradientTransform="matrix(-1 0 0 -1 2842.8477 240.4543)">
			<stop  offset="0" style="stop-color:#74EBD5"/>
			<stop  offset="1" style="stop-color:#5E83A5"/>
		</linearGradient>
		<polygon class="st13" points="743.9,857.9 709.7,680.5 651.9,551.2 492.1,895.6 492.1,895.6 		"/>
		
			<linearGradient id="SVGID_14_" gradientUnits="userSpaceOnUse" x1="2039.4951" y1="-533.7206" x2="2255.8359" y2="-750.0614" gradientTransform="matrix(-1 0 0 -1 2842.8477 240.4543)">
			<stop  offset="0" style="stop-color:#5E83A5"/>
			<stop  offset="1" style="stop-color:#74EBD5"/>
		</linearGradient>
		<polygon class="st14" points="871.8,895.6 709.7,680.5 492.1,895.6 		"/>
		
			<linearGradient id="SVGID_15_" gradientUnits="userSpaceOnUse" x1="2366.8179" y1="-386.971" x2="2224.7007" y2="-529.0883" gradientTransform="matrix(-1 0 0 -1 2842.8477 240.4543)">
			<stop  offset="0" style="stop-color:#74EBD5"/>
			<stop  offset="1" style="stop-color:#5E83A5"/>
		</linearGradient>
		<polygon class="st15" points="651.9,551.2 463.9,639.6 492.1,895.6 		"/>
		
			<linearGradient id="SVGID_16_" gradientUnits="userSpaceOnUse" x1="2052.1255" y1="-150.8807" x2="2052.1255" y2="-457.5858" gradientTransform="matrix(-1 0 0 -1 2842.8477 240.4543)">
			<stop  offset="0" style="stop-color:#5E83A5"/>
			<stop  offset="1" style="stop-color:#74EBD5"/>
		</linearGradient>
		<polygon class="st16" points="709.7,680.5 871.8,391.3 871.8,698 		"/>
		
			<linearGradient id="SVGID_17_" gradientUnits="userSpaceOnUse" x1="2149.604" y1="-239.1831" x2="2050.3047" y2="-296.5135" gradientTransform="matrix(-1 0 0 -1 2842.8477 240.4543)">
			<stop  offset="0" style="stop-color:#4A72B2"/>
			<stop  offset="0.5384" style="stop-color:#587EA9"/>
			<stop  offset="0.9949" style="stop-color:#5E83A5"/>
		</linearGradient>
		<polygon class="st17" points="709.7,680.5 651.9,551.2 871.8,391.3 		"/>
		<linearGradient id="SVGID_18_" gradientUnits="userSpaceOnUse" x1="452.5231" y1="273.7617" x2="690.9462" y2="512.1848">
			<stop  offset="0" style="stop-color:#5E83A5"/>
			<stop  offset="4.403371e-02" style="stop-color:#608CA9"/>
			<stop  offset="0.2254" style="stop-color:#67AEB9"/>
			<stop  offset="0.4108" style="stop-color:#6DC9C5"/>
			<stop  offset="0.5994" style="stop-color:#71DCCE"/>
			<stop  offset="0.7932" style="stop-color:#73E7D3"/>
			<stop  offset="1" style="stop-color:#74EBD5"/>
		</linearGradient>
		<path class="st18" d="M651.9,551.2c-18.8,0-317-159.9-317-159.9l455.8-14.5L651.9,551.2z"/>
		<linearGradient id="SVGID_19_" gradientUnits="userSpaceOnUse" x1="334.9497" y1="515.4518" x2="651.9219" y2="515.4518">
			<stop  offset="0" style="stop-color:#5E83A5"/>
			<stop  offset="1" style="stop-color:#74EBD5"/>
		</linearGradient>
		<polygon class="st19" points="463.9,639.6 334.9,391.3 651.9,551.2 		"/>
		
			<linearGradient id="SVGID_20_" gradientUnits="userSpaceOnUse" x1="2312.9519" y1="-437.2245" x2="2460.0791" y2="-692.0562" gradientTransform="matrix(-1 0 0 -1 2842.8477 240.4543)">
			<stop  offset="0" style="stop-color:#5E83A5"/>
			<stop  offset="1" style="stop-color:#74EBD5"/>
		</linearGradient>
		<polygon class="st20" points="492.1,895.6 463.9,639.6 318.8,895.6 		"/>
		<g>
			<polygon class="st11" points="745.7,857.9 711.4,680.5 653.7,551.2 493.8,895.6 493.8,895.6 			"/>
			<polygon class="st11" points="873.5,895.6 711.4,680.5 493.8,895.6 			"/>
			<polygon class="st11" points="653.7,551.2 465.6,639.6 493.8,895.6 			"/>
			<polygon class="st11" points="711.4,680.5 873.5,391.3 873.5,698 			"/>
			<polygon class="st11" points="711.4,680.5 653.7,551.2 873.5,391.3 			"/>
			<path class="st11" d="M653.7,551.2c-18.8,0-317-159.9-317-159.9h536.8L653.7,551.2z"/>
			<polygon class="st11" points="465.6,639.6 336.7,391.3 653.7,551.2 			"/>
			<polygon class="st11" points="493.8,895.6 465.6,639.6 320.6,895.6 			"/>
		</g>
		<linearGradient id="SVGID_21_" gradientUnits="userSpaceOnUse" x1="658.4543" y1="557.7415" x2="849.1901" y2="367.0057">
			<stop  offset="0" style="stop-color:#5E83A5"/>
			<stop  offset="1" style="stop-color:#74EBD5"/>
		</linearGradient>
		<polygon class="st21" points="790.7,376.8 873.5,391.3 651.9,551.2 		"/>
		<g>
			
				<image style="overflow:visible;opacity:0.25;" width="418" height="501" xlink:href="D9149B8B.png"  transform="matrix(0.24 0 0 0.24 291.3301 121.3161)">
			</image>
			<g>
				<g>
					
						<linearGradient id="SVGID_22_" gradientUnits="userSpaceOnUse" x1="2466.3623" y1="39.8529" x2="2536.5176" y2="39.8529" gradientTransform="matrix(-1 0 0 -1 2842.8477 240.4543)">
						<stop  offset="0" style="stop-color:#4A72B2"/>
						<stop  offset="0.5384" style="stop-color:#587EA9"/>
						<stop  offset="0.9949" style="stop-color:#5E83A5"/>
					</linearGradient>
					<polygon class="st22" points="376.5,210.9 317.3,221.3 306.3,179.9 					"/>
					
						<linearGradient id="SVGID_23_" gradientUnits="userSpaceOnUse" x1="2466.3623" y1="69.3468" x2="2536.5176" y2="69.3468" gradientTransform="matrix(-1 0 0 -1 2842.8477 240.4543)">
						<stop  offset="0" style="stop-color:#5E83A5"/>
						<stop  offset="1" style="stop-color:#74EBD5"/>
					</linearGradient>
					<polygon class="st23" points="376.5,210.9 354.9,131.3 306.3,179.9 					"/>
				</g>
			</g>
		</g>
		<g>
			<polygon class="st24" points="871.8,435.5 871.8,193.7 681.1,172.3 714.4,351.6 			"/>
			<polygon class="st24" points="714.4,351.6 681.1,172.3 613.1,14 425.1,435.5 425.1,435.5 			"/>
			<polyline class="st24" points="871.8,435.5 681.1,172.3 425.1,435.5 			"/>
			<path class="st24" d="M391.9,122.2"/>
			<line class="st24" x1="425.1" y1="435.5" x2="613.1" y2="14"/>
			<polygon class="st24" points="681.1,172.3 871.8,-181.7 871.8,193.7 			"/>
			<polygon class="st24" points="681.1,172.3 613.1,14 871.8,-181.7 			"/>
			<polygon class="st24" points="477.2,135.4 240.2,-181.7 613.1,14 			"/>
			<g>
				<polygon class="st24" points="425.1,435.5 477.2,135.4 221.2,435.5 				"/>
			</g>
			<polyline class="st24" points="425.1,435.5 519.5,693.5 221.2,435.5 			"/>
			<polygon class="st24" points="519.5,693.5 714.4,351.6 873.5,895.6 			"/>
			<polygon class="st24" points="519.1,692.4 682.6,616.3 655.5,846.6 			"/>
			<polyline class="st24" points="613.1,14 271.1,91.5 336.8,394.6 			"/>
		</g>
		<g class="st25">
			
				<image style="display:inline;overflow:visible;" width="849" height="734" xlink:href="D9149B98.png"  transform="matrix(0.24 0 0 0.24 254.7168 433.3467)">
			</image>
		</g>
		<linearGradient id="SVGID_24_" gradientUnits="userSpaceOnUse" x1="244.1716" y1="749.517" x2="365.2636" y2="628.4249">
			<stop  offset="0" style="stop-color:#74EBD5"/>
			<stop  offset="1" style="stop-color:#5E83A5"/>
		</linearGradient>
		<path class="st26" d="M349.2,612.4c-12.1,1.6-93.4,48.4-93.4,48.4L282.7,788L349.2,612.4z"/>
		<g class="st25">
			
				<image style="display:inline;overflow:visible;" width="681" height="745" xlink:href="D9149B99.png"  transform="matrix(0.24 0 0 0.24 224.6221 -128.7752)">
			</image>
		</g>
	</g>
</g>
</svg>
