<?xml version="1.0" ?><!DOCTYPE svg  PUBLIC '-//W3C//DTD SVG 1.1//EN'  'http://www.w3.org/Graphics/SVG/1.1/DTD/svg11.dtd'><svg enable-background="new 0 0 128 128" height="128px" id="Layer_1" version="1.1" viewBox="0 0 128 128" width="128px" xml:space="preserve" xmlns="http://www.w3.org/2000/svg" xmlns:xlink="http://www.w3.org/1999/xlink"><g><path d="M62.092,27.755c1.307,1.968,2.541,3.828,2.783,6.083c0.426,3.982-2.095,6.651-2.194,6.753   c-0.777,0.785-0.77,2.052,0.015,2.829c0.39,0.386,0.898,0.578,1.407,0.578c0.515,0,1.031-0.198,1.421-0.593   c0.162-0.164,3.96-4.078,3.327-9.993c-0.346-3.228-1.982-5.694-3.428-7.87c-1.148-1.73-2.141-3.225-2.307-4.758   c-0.367-3.388,1.95-5.022,2.082-5.111c0.916-0.6,1.18-1.828,0.588-2.752c-0.596-0.931-1.833-1.202-2.763-0.605   c-0.185,0.118-4.526,2.971-3.884,8.899C59.411,23.718,60.774,25.77,62.092,27.755z" fill="#010101"/><path d="M49.015,27.755c1.307,1.968,2.542,3.828,2.783,6.084c0.427,3.981-2.096,6.651-2.194,6.754   c-0.777,0.785-0.771,2.051,0.015,2.828C50.009,43.808,50.518,44,51.026,44c0.515,0,1.03-0.198,1.421-0.593   c0.162-0.164,3.962-4.079,3.329-9.994c-0.346-3.228-1.984-5.694-3.428-7.87c-1.149-1.731-2.142-3.226-2.308-4.758   c-0.367-3.386,1.946-5.019,2.081-5.111c0.917-0.6,1.181-1.827,0.589-2.752c-0.596-0.931-1.833-1.201-2.763-0.606   c-0.185,0.119-4.527,2.971-3.884,8.9C46.334,23.718,47.697,25.771,49.015,27.755z" fill="#010101"/><path d="M75.168,27.754c1.307,1.969,2.542,3.828,2.783,6.085c0.428,3.981-2.095,6.65-2.193,6.753   c-0.776,0.785-0.771,2.051,0.015,2.828c0.391,0.386,0.898,0.579,1.407,0.579c0.516,0,1.03-0.198,1.422-0.593   c0.162-0.164,3.962-4.078,3.326-9.992c-0.345-3.229-1.982-5.695-3.428-7.872c-1.148-1.73-2.141-3.224-2.307-4.756   c-0.365-3.388,1.951-5.022,2.084-5.112c0.916-0.6,1.181-1.827,0.589-2.752c-0.596-0.931-1.833-1.202-2.763-0.605   c-0.186,0.118-4.526,2.971-3.887,8.899C72.488,23.717,73.851,25.77,75.168,27.754z" fill="#010101"/><path d="M124,100H86.787c2.393-2.033,5.154-5.046,7.719-9.414c0.774,0.195,1.879,0.368,3.38,0.368   c0.542,0,1.135-0.022,1.781-0.075c3.858-0.308,11.088-2.194,16.16-11.365c4.238-7.661,5.006-18.936-0.67-22.863   c-3.746-2.592-9.169-1.825-12.211-1.087c0.031-1.136,0.054-2.287,0.054-3.476c0-1.104-0.896-2-2-2H27c-1.104,0-2,0.896-2,2   C25,81.166,34.558,94.344,41.214,100H4c-2.206,0-4,1.794-4,4c0,2.065,1.303,5.129,4.885,5.188l26.957,2.641   c0.399,0.033,1.083,0.496,1.263,0.854l0.212,0.423C34.143,114.756,36.156,116,38,116h52c1.845,0,3.858-1.244,4.686-2.898   l0.208-0.419c0.18-0.358,0.864-0.822,1.295-0.858l26.925-2.638c3.583-0.06,4.887-3.122,4.887-5.187   C128,101.794,126.206,100,124,100z M112.881,59.939c2.996,2.073,3.328,10.619-0.554,17.639c-3.089,5.584-7.698,8.893-12.979,9.314   c-1.265,0.102-2.204,0.062-2.887-0.016c3.056-6.451,5.547-15.222,6.302-27.126C105.187,59.032,110.202,58.086,112.881,59.939z    M29.016,54.087h69.967C98.395,90.343,81.819,98.972,79.501,100H48.49C46.175,99.006,29.601,90.6,29.016,54.087z M123.007,105.188   c-0.065,0-0.13,0.003-0.195,0.01l-26.981,2.644c-1.804,0.147-3.701,1.431-4.516,3.056l-0.209,0.42   C90.952,111.623,90.343,112,90,112H38c-0.343,0-0.953-0.378-1.106-0.684l-0.211-0.422c-0.811-1.62-2.708-2.904-4.482-3.049   l-27.014-2.646c-0.064-0.007-0.13-0.01-0.195-0.01c-0.262,0-0.957,0-0.992-1.189h44.111h31.78H124   C124,104.542,123.828,105.188,123.007,105.188z" fill="#010101"/></g></svg>