<?xml version="1.0" encoding="utf-8"?>
<!-- Generator: Adobe Illustrator 19.0.0, SVG Export Plug-In . SVG Version: 6.00 Build 0)  -->
<svg version="1.1" id="Layer_1" xmlns="http://www.w3.org/2000/svg" xmlns:xlink="http://www.w3.org/1999/xlink" x="0px" y="0px"
	 viewBox="291 128.5 934 243" style="enable-background:new 291 128.5 934 243;" xml:space="preserve">
<style type="text/css">
	.st0{fill:#E8E2B5;}
</style>
<g>
	<path class="st0" d="M393.7,291.8c-42.9-0.4-20.8-0.4-87,0c4.6-3.8,6.2-8.6,6.6-14.4c1.1-17,1.1-34.1,1.1-50.9
		c0-8.6,0-17.3-0.2-25.9c-0.7-2.2-3.8-4.2-6-4.9c2.2-0.4,5.1-2.7,5.5-4.9c-0.2-3.5-0.2-6.9-0.7-10.4c-0.4-6.9-1.1-12.4-6.2-17.7
		c28.6,0.4,57.1,0.4,85.7,0c0.9,7.7,1.5,16.2,2.4,25.5h-0.9c-9.7-14.4-31.6-18.6-46.9-17.5c-5.3,0.2-6,5.5-6.4,10.2
		c-0.2,3.3-0.4,6.6-0.7,10c0.4,2.2,2.9,4.2,5.5,4.7c-2.7,1.1-5.1,2.9-5.8,5.1c-0.2,6.2-0.2,12.4-0.2,18.8c7.3-4.4,20.8-5.5,29.4-5.5
		c7.3,0,14.8,0.9,21.5,4c1.8,6.2,3.1,12.8,4.4,19.3h-0.9c-6.6-10-23.9-13.3-34.7-13.3c-4.9,0-15.7,0.7-19.7,3.5
		c0.2,16.2,0.2,32.5,1.3,48.7c0.2,3.1,0.9,7.1,4.4,7.5c23.9,3.1,44.7-4.4,56.7-21.5c0,0,1.3,0,1.1,0
		C401,271.9,397.2,283.2,393.7,291.8z"/>
	<path class="st0" d="M521,177.8c-0.4,3.8-0.7,8-0.9,12.6c-0.2,1.5,2.9,4.6,5.5,5.1c-2.4,1.1-5.5,3.1-6,5.3
		c-1.1,28.3-1.3,65.7-0.9,91c-5.5-0.4-15.3-0.4-22.1,0c-7.5-22.8-25-37.8-40.5-54.9c-13.1-14.2-22.8-26.1-31-43.6
		c0.4,27.7,0.9,55.8,4.2,83.2c0.4,4.9,3.3,12,6.4,15.3c-8.9-0.2-19.3-0.2-28.8,0c3.3-3.3,6.2-10.4,6.6-15.3
		c1.8-22.6,2.4-50.9,2.2-76.1c-0.2-1.5-3.5-4-6-4.6c2.7-0.7,5.8-3.3,5.8-5.3c0-3.3-0.2-6.4-0.2-9.5c-0.2-8-1.8-12-7.5-18.1
		c12.8,0.4,21,0.4,31.4,0c4.2,9.7,9.1,19,14.6,27.7c3.5,4,7.5,4.6,10.4,5.1c-1.5,0.7-3.8,2.9-2.9,5.3c1.1,1.5,2.2,2.9,3.3,4.2
		c14.6,17.3,32.3,29.4,44.3,49.6c-0.4-18.1-1.3-35.4-2.7-53.3c-0.2-2-3.3-4.6-6-5.5c2.4-0.7,5.3-3.3,5.3-4.9
		c-0.4-4.4-0.7-8.6-1.1-13.1c-0.4-4.9-2.4-11.1-6.4-15c13.3,0.4,16.4,0.4,28.8,0C523.4,166.3,521.4,173,521,177.8z"/>
	<path class="st0" d="M613.8,287.4c-9.7,3.3-19.9,5.1-30.1,4.9c-18.8-0.4-32.5-0.9-48.7-0.4c4.2-3.5,6.4-9.1,6.6-14.6
		c0.7-15.9,0.7-31.9,0.7-47.6c0-9.7,0.2-19.5,0-29c-0.7-2.2-3.5-4.2-5.8-4.9c2.2-0.4,5.1-2.7,5.5-4.9c-0.2-3.3-0.4-6.6-0.4-10
		c-0.2-6.9-0.9-12.6-5.8-18.1c30.8,0.4,27,0.2,52.9,0c26.3-0.7,48.9,9.5,60.9,28.3c2.7,3.1,5.1,4,8.2,4.6c-2.7,0.4-3.8,2.7-3.5,4.6
		c3.1,7.7,4.9,16.4,4.9,26.3C659.1,255.5,640.5,278.3,613.8,287.4z M627.3,200.6c-1.8-2.4-4.9-4-8-4.9c2.4-0.9,4-2.7,3.8-5.1
		c-6.9-12-18.6-19.9-36.7-20.4c-2.7-0.2-13.5-0.2-14.8,0.4c-2.9,1.3-2.9,7.3-2.9,10c-0.2,3.3-0.4,6.6-0.7,10.2
		c0.4,2.2,2.9,4.2,5.5,4.7c-2.7,1.1-5.1,3.1-5.8,5.1c-0.4,7.1-0.2,14.2-0.2,21c0,6.9,0.2,59.8,2.7,61.5c2.2,1.3,4.9,1.3,7.1,1.3
		c36.5,0,53.8-21.9,53.8-58C631,217.2,629.9,208.4,627.3,200.6z"/>
	<path class="st0" d="M790.6,257.3c0,5.1,0,22.4,3.1,25.9c-15.3,0.4-22.4,5.3-36.1,9.3c-7.5,2.2-15.7,3.3-23.7,3.3
		c-39,0-66.2-28.6-66.2-68.2c0-9.3,1.5-18.4,4.6-26.6c0.4-1.5-1.3-4.6-3.5-5.3c2.7-0.7,7.3-3.5,8.4-5.3c6.4-11.3,16.2-20.6,29-26.1
		c9.1-3.8,18.6-5.1,28.5-5.5c15.9-0.2,27.4,1.1,41.8,6.6c1.5,11.7,1.8,23.5,2.4,35.2h-0.9c-9.5-20.4-18.6-35-43.2-35
		c-18.4,0-28.1,10.6-33.2,24.8c-0.4,1.1,1.3,4.2,3.8,5.1c-2,0.7-5.8,2.4-6.6,5.1c-2,9.1-2.4,18.6-2.4,27c0,20.4,4.6,45.4,23.2,56.7
		c4.2,2.7,9.1,4.4,13.9,4.4c13.3,0,21.5-4.2,30.5-13.9c1.1-6.4,1.1-13.9,1.1-20.6c0-10.2-5.1-25.2-10.4-28.8
		c17.9,0.4,21.9,0.4,42.9,0C790.1,233,790.6,247.3,790.6,257.3z"/>
	<path class="st0" d="M875.7,291.8c-6.6-19.9-19.9-53.6-37.2-66.6v-1.1c16.6,0.2,30.1-7.5,32.5-23.7c-0.7-2-2.9-3.8-5.3-4.6
		c2.4-0.9,4.9-2.7,5.3-5.1c-1.8-13.9-11.1-20.8-26.1-20.8c-4.4,0-7.1-0.7-9.1,3.8c-0.9,2.4-1.5,9.1-2,16.8c-0.2,1.5,3.5,4.4,5.5,5.1
		c-2,0.9-5.8,2.9-6,5.1c-0.2,10.2-0.2,19.9-0.2,23.7c0,17.7,0.2,35.4,2,53.1c0.7,5.8,2.2,10.6,6.9,14.4c-14.2-0.4-27.7-0.4-41.4,0
		c4.6-3.8,6.2-8.6,6.6-14.4c1.1-16.8,1.1-34.1,1.1-50.9c0-8.6,0-17.5-0.2-26.1c0-1.5-3.3-4-5.8-4.6c2.4-0.9,5.5-2.9,5.3-4.9
		c0-3.5-0.2-6.9-0.7-10.4c-0.4-6.6-1.1-12.4-6-17.7c31.2,0.4,27.9,0.2,53.8,0c18.8-0.4,42.1,6.9,43.8,28.3c0.7,2.2,2.9,4,5.3,4.4
		c-2.4,1.1-5.3,2.9-5.8,5.1c-3.8,18.6-21.5,25.7-39.6,26.3c3.3,0,8.9,2.7,11.5,4.4c19.5,13.1,22.4,47.8,42.7,60.4
		C896.9,291.4,887.6,291.4,875.7,291.8z"/>
	<path class="st0" d="M1000.4,291.8c2.2-2.4,3.8-5.3,3.8-8.9c0-3.3-1.1-6.4-2.2-9.5c-10.2-27.2-22.6-53.6-33.6-80.3
		c-4.9,13.9-10.8,27.4-16.2,41.2c5.3-2.7,11.3-3.5,17-3.5c4.4,0,8.6,0.9,12.4,3.1c1.8,6.2,3.3,12.8,4.6,19h-1.1
		c-4.2-7.7-13.3-12.4-22.1-12.4c-4.4,0-11.3,0.9-14.8,4c-3.3,8.6-11.7,27.9-11.7,36.7c0,4,1.1,7.7,4,10.6c-10.2-0.4-20.8-0.4-30.8,0
		c8-4.4,13.5-12.4,17.5-20.4c9.1-17.5,14.8-31.4,21.9-48.9c2.9-7.5,5.8-14.8,8.6-21.9c0-2-1.8-4.2-4-4.9c2.4-0.7,6-2,7.7-4.9
		c4.4-10.8,8.9-21.9,13.7-34.7c5.1,12.4,11.1,23.7,16.6,35.2c0.9,1.8,5.1,3.8,7.7,4.2c-2.9,1.1-3.8,3.8-3.1,5.3l2.2,4.4
		c10.8,22.6,22.1,45.4,34.1,67.3c5.1,9.1,7.5,14.6,14.6,19.3C1028,291.4,1024.7,291.4,1000.4,291.8z"/>
	<path class="st0" d="M1048.6,291.8c4.9-3.5,6.2-8.6,6.6-14.6c1.1-16.8,1.1-33.9,1.1-50.7c0-8.6,0-17-0.2-25.9c0-1.3-3.3-4-5.8-4.9
		c2.4-0.9,5.3-3.3,5.3-5.3c0-3.5-0.2-6.4-0.7-10c-0.4-6.9-1.1-12.4-6-17.7c17.5,0.4,21.5,0.4,39.8,0c-4.9,5.3-5.5,11.3-6,18.1
		c-0.4,3.3-0.7,6-0.9,9.5c0,1.3,3.1,4.4,5.5,5.1c-2.2,0.9-5.8,3.3-5.8,5.1c-0.2,8.6-0.2,16.8-0.2,25.2c0,17-0.2,34.5,1.5,51.3
		c0.7,6,2.2,10.8,6.9,14.6C1076.3,291.4,1062.4,291.4,1048.6,291.8z"/>
	<path class="st0" d="M1212.1,177.8c-0.4,3.8-0.7,8-0.9,12.6c-0.2,1.5,2.9,4.6,5.5,5.1c-2.4,1.1-5.5,3.1-6,5.3
		c-1.1,28.3-1.3,65.7-0.9,91c-5.5-0.4-15.3-0.4-22.1,0c-7.5-22.8-25-37.8-40.5-54.9c-13.1-14.2-22.8-26.1-31-43.6
		c0.4,27.7,0.9,55.8,4.2,83.2c0.4,4.9,3.3,12,6.4,15.3c-8.9-0.2-19.3-0.2-28.8,0c3.3-3.3,6.2-10.4,6.6-15.3
		c1.8-22.6,2.4-50.9,2.2-76.1c-0.2-1.5-3.5-4-6-4.6c2.7-0.7,5.8-3.3,5.8-5.3c0-3.3-0.2-6.4-0.2-9.5c-0.2-8-1.8-12-7.5-18.1
		c12.8,0.4,21,0.4,31.4,0c4.2,9.7,9.1,19,14.6,27.7c3.5,4,7.5,4.6,10.4,5.1c-1.5,0.7-3.8,2.9-2.9,5.3c1.1,1.5,2.2,2.9,3.3,4.2
		c14.6,17.3,32.3,29.4,44.3,49.6c-0.4-18.1-1.3-35.4-2.7-53.3c-0.2-2-3.3-4.6-6-5.5c2.4-0.7,5.3-3.3,5.3-4.9
		c-0.4-4.4-0.7-8.6-1.1-13.1c-0.4-4.9-2.4-11.1-6.4-15c13.3,0.4,16.4,0.4,28.8,0C1214.5,166.3,1212.5,173,1212.1,177.8z"/>
</g>
<g>
	<path class="st0" d="M404.8,350.1c-8.4,0-15.2-1.9-20.6-5.6c-5.9-4-8.8-9.7-8.8-16.8c0-7.6,2.9-13.4,8.7-17.3
		c5.2-3.5,12.1-5.2,20.7-5.1c5.8,0.1,11.1,0.8,15.9,2.1c2.1-1.1,6-1.5,11.8-1.3v18.2h-13.9v-7.5c-3.1-2.1-7.4-3.2-12.8-3.2
		c-4.6,0-8.1,1.2-10.6,3.6c-2.5,2.4-3.7,5.9-3.7,10.4c0,9.3,5.4,13.9,16.2,13.9c1.6,0,2.5,0,2.8,0c7.1-0.4,11.4-4.3,13.1-11.5
		l9.8,5.8c-0.3,2.7-1.7,5.2-4.3,7.5C424.2,347.8,416,350.1,404.8,350.1z"/>
	<path class="st0" d="M521.1,327.6c0,7.5-3.3,13.3-9.8,17.3c-5.9,3.7-13.6,5.6-23.1,5.6c-9.4,0-17.2-1.9-23.2-5.8
		c-6.5-4.2-9.8-9.9-9.8-17.1c0-7.1,3.3-12.8,9.8-16.9c6.1-3.9,13.9-5.9,23.2-5.9c9.3,0,17,2,23.1,6
		C517.8,315,521.1,320.7,521.1,327.6z M504.6,327.8c0-4.3-1.6-7.8-4.7-10.4c-3.1-2.7-7.1-4-11.8-4c-4.7,0-8.6,1.2-11.7,3.8
		c-3.2,2.7-4.9,6.3-4.9,10.7c0,4.2,1.6,7.7,4.8,10.4c3.2,2.7,7.1,4,11.7,4c4.8,0,8.7-1.3,11.8-3.9
		C503,335.8,504.6,332.3,504.6,327.8z"/>
	<path class="st0" d="M584.4,321.2v-5.5h-20.7v6.8h14.7v8.9h-14.7v8h8.5v9.6h-31v-9.6h8.5v-23.8h-8.5v-9.6h57v15.1H584.4z"/>
	<path class="st0" d="M663,321.2v-5.5h-20.7v6.8H657v8.9h-14.7v8h8.5v9.6h-31v-9.6h8.5v-23.8h-8.5v-9.6h57v15.1H663z"/>
	<path class="st0" d="M743.9,322.3v-6.5H721v6.9h17v9h-17v7.8h22.9v-6.7h13.9v16.4h-59.2v-9.6h8.5v-23.8h-8.5v-9.6h59.2v16.2H743.9z
		"/>
	<path class="st0" d="M827.5,322.3v-6.5h-22.9v6.9h17v9h-17v7.8h22.9v-6.7h13.9v16.4h-59.2v-9.6h8.5v-23.8h-8.5v-9.6h59.2v16.2
		H827.5z"/>
	<path class="st0" d="M950,349.1h-41.1v-9.6h8.5v-23.8h-8.5v-9.6h38.8c14.5,0,21.8,3.4,21.8,10.3c0,2.3-0.9,4.3-2.8,5.9
		c-0.9,0.8-2.6,1.8-5,3c2.8,0.7,4.8,1.5,6,2.5c2.5,1.9,3.7,4.8,3.7,8.8c0,3.6-2.1,6.6-6.2,9C961.1,347.9,956,349.1,950,349.1z
		 M931.4,315.7v7.4h13.7c5,0,7.4-1.2,7.4-3.7c0-1.6-0.6-2.6-1.7-3c-1.2-0.5-3.2-0.7-6.1-0.7H931.4z M931.4,332.2v7.3h13.7
		c5,0,7.4-1.2,7.4-3.7c0-1.5-0.6-2.5-1.7-3c-1.2-0.4-3.2-0.7-6.1-0.7H931.4z"/>
	<path class="st0" d="M1030.1,349.1v-9.6h10.3l-2.6-4.3h-24.4l-2.6,4.3h8.4v9.6h-27.5v-9.6h8.2l14.4-23.8h-5.1v-9.6h38.8l-0.1,9.6
		h-5l14.4,23.8h8.4v9.6H1030.1z M1025.6,315l-7,11.5h14L1025.6,315z"/>
	<path class="st0" d="M1149.4,349.1h-17.9l-10.5-15.5h-11.5v5.9h8.5v9.6h-31v-9.6h8.5v-23.8h-8.5v-9.6h40.3
		c14.5,0,21.7,4.6,21.7,13.7c0,6.6-3.7,10.7-11.1,12.5l5.3,7.2h6.4V349.1z M1109.4,315.7v8.6h13.1c5.9,0,8.9-1.4,8.9-4.2
		c0-2.9-3-4.3-9-4.3H1109.4z"/>
</g>
</svg>
