<?xml version="1.0" ?><!DOCTYPE svg  PUBLIC '-//W3C//DTD SVG 1.1//EN'  'http://www.w3.org/Graphics/SVG/1.1/DTD/svg11.dtd'><svg baseProfile="full" height="56px" version="1.1" width="56px" xmlns="http://www.w3.org/2000/svg" xmlns:ev="http://www.w3.org/2001/xml-events" xmlns:xlink="http://www.w3.org/1999/xlink"><path d="M53,26 C53,26 45,26 45,26 C43.6979999999999,26 42.598,25.161 42.1840000000002,24 C42.1840000000002,24 39.8159999999998,24 39.8159999999998,24 C39.402,25.161 38.3020000000001,26 37,26 C37,26 36,26 36,26 C36,26 36,28 36,28 C36,28.553 35.5520000000001,29 35,29 C34.4479999999999,29 34,28.553 34,28 C34,28 34,26 34,26 C34,26 30,26 30,26 C30,26 30,28 30,28 C30,28.553 29.5520000000001,29 29,29 C28.4479999999999,29 28,28.553 28,28 C28,28 28,26 28,26 C28,26 27,26 27,26 C25.346,26 24,24.654 24,23 C24,23 24,18 24,18 C24,18 18,18 18,18 C16.8969999999999,18 16,18.897 16,20 C16,20 16,46 16,46 C16,47.102 16.8969999999999,48 18,48 C18,48 23.261,48 23.261,48 C20.0909999999999,45.875 18,42.261 18,38.167 C18,38.167 18,31 18,31 C18,30.447 18.4479999999999,30 19,30 C19,30 23,30 23,30 C23.5520000000001,30 24,30.447 24,31 C24,31.553 23.5520000000001,32 23,32 C23,32 20,32 20,32 C20,32 20,38.167 20,38.167 C20,43.589 24.4110000000001,48 29.8330000000001,48 C29.8330000000001,48 34.1669999999999,48 34.1669999999999,48 C39.5889999999999,48 44,43.589 44,38.167 C44,38.167 44,32 44,32 C44,32 28,32 28,32 C27.4470000000001,32 27,31.553 27,31 C27,30.447 27.4470000000001,30 28,30 C28,30 45,30 45,30 C45.5520000000001,30 46,30.447 46,31 C46,31 46,32 46,32 C46,32 47.6990000000001,32 47.6990000000001,32 C50.0700000000002,32 52,33.93 52,36.301 C52,37.687 51.326,38.996 50.1979999999999,39.802 C50.1979999999999,39.802 44.5810000000001,43.813 44.5810000000001,43.813 C44.5729999999999,43.819 44.5630000000001,43.821 44.5549999999998,43.826 C43.636,45.505 42.3220000000001,46.938 40.739,48 C40.739,48 49,48 49,48 C50.654,48 52,49.346 52,51 C52,51 52,53 52,53 C52,54.654 50.654,56 49,56 C49,56 4,56 4,56 C1.79500000000007,56 0,54.206 0,52 C0,52 0,4 0,4 C0,1.79399999999998 1.79500000000007,0 4,0 C4,0 48,0 48,0 C50.2049999999999,0 52,1.79399999999998 52,4 C52,4 52,14 52,14 C52,16.206 50.2049999999999,18 48,18 C48,18 40,18 40,18 C40,18 40,22 40,22 C40,22 42.1840000000002,22 42.1840000000002,22 C42.598,20.838 43.6979999999999,20 45,20 C45,20 53,20 53,20 C54.654,20 56,21.346 56,23 C56,24.654 54.654,26 53,26 ZM49.0360000000001,38.174 C49.6399999999999,37.743 50,37.043 50,36.301 C50,35.032 48.9679999999998,34 47.6990000000001,34 C47.6990000000001,34 46,34 46,34 C46,34 46,38.167 46,38.167 C46,38.978 45.8960000000002,39.763 45.7399999999998,40.528 C45.7399999999998,40.528 49.0360000000001,38.174 49.0360000000001,38.174 ZM26,23 C26,23.552 26.4490000000001,24 27,24 C27,24 37,24 37,24 C37.5509999999999,24 38,23.552 38,23 C38,23 38,18 38,18 C38,18 26,18 26,18 C26,18 26,23 26,23 ZM2,52 C2,53.102 2.89699999999993,54 4,54 C4,54 49,54 49,54 C49.5509999999999,54 50,53.552 50,53 C50,53 50,51 50,51 C50,50.448 49.5509999999999,50 49,50 C49,50 34.1669999999999,50 34.1669999999999,50 C34.1669999999999,50 29.8330000000001,50 29.8330000000001,50 C29.8330000000001,50 18,50 18,50 C15.7950000000001,50 14,48.206 14,46 C14,46 14,20 14,20 C14,19.268 14.212,18.591 14.556,18 C14.556,18 2,18 2,18 C2,18 2,52 2,52 ZM48,16 C49.1030000000001,16 50,15.102 50,14 C50,14 50,4 50,4 C50,2.89699999999999 49.1030000000001,2 48,2 C48,2 4,2 4,2 C2.89699999999993,2 2,2.89699999999999 2,4 C2,4 2,16 2,16 C2,16 18,16 18,16 C18,16 25,16 25,16 C25,16 39,16 39,16 C39,16 48,16 48,16 ZM53,22 C53,22 45,22 45,22 C44.4490000000001,22 44,22.448 44,23 C44,23.552 44.4490000000001,24 45,24 C45,24 53,24 53,24 C53.5509999999999,24 54,23.552 54,23 C54,22.448 53.5509999999999,22 53,22 ZM26.9949999999999,10.005 C26.7350000000001,10.005 26.4760000000001,9.89400000000001 26.2950000000001,9.70499999999998 C26.105,9.524 26.0050000000001,9.26499999999999 26.0050000000001,8.99400000000003 C26.0050000000001,8.73399999999998 26.105,8.47500000000002 26.2950000000001,8.29500000000002 C26.6550000000002,7.92500000000001 27.335,7.92500000000001 27.7060000000001,8.29500000000002 C27.8960000000002,8.47500000000002 27.9949999999999,8.73399999999998 27.9949999999999,8.99400000000003 C27.9949999999999,9.26499999999999 27.8960000000002,9.524 27.7060000000001,9.70499999999998 C27.5250000000001,9.89400000000001 27.2649999999999,10.005 26.9949999999999,10.005 ZM22.9949999999999,10.005 C22.7350000000001,10.005 22.4760000000001,9.89400000000001 22.2950000000001,9.70499999999998 C22.105,9.524 21.9949999999999,9.26499999999999 21.9949999999999,8.99400000000003 C21.9949999999999,8.73399999999998 22.105,8.47500000000002 22.2950000000001,8.29500000000002 C22.6550000000002,7.92500000000001 23.3359999999998,7.92500000000001 23.7060000000001,8.29500000000002 C23.8960000000002,8.47500000000002 24.0050000000001,8.73399999999998 24.0050000000001,8.99400000000003 C24.0050000000001,9.26499999999999 23.8960000000002,9.524 23.7060000000001,9.70499999999998 C23.5259999999998,9.89400000000001 23.2649999999999,10.005 22.9949999999999,10.005 ZM17,12 C15.346,12 14,10.654 14,9 C14,7.346 15.346,6 17,6 C18.654,6 20,7.346 20,9 C20,10.654 18.654,12 17,12 ZM17,8 C16.4490000000001,8 16,8.44799999999998 16,9 C16,9.55200000000002 16.4490000000001,10 17,10 C17.5509999999999,10 18,9.55200000000002 18,9 C18,8.44799999999998 17.5509999999999,8 17,8 ZM9,12 C7.346,12 6,10.654 6,9 C6,7.346 7.346,6 9,6 C10.654,6 12,7.346 12,9 C12,10.654 10.654,12 9,12 ZM9,8 C8.44900000000007,8 8,8.44799999999998 8,9 C8,9.55200000000002 8.44900000000007,10 9,10 C9.55099999999993,10 10,9.55200000000002 10,9 C10,8.44799999999998 9.55099999999993,8 9,8 Z " fill="rgb( 80, 80, 112 )"/></svg>