<?xml version="1.0" ?><!DOCTYPE svg  PUBLIC '-//W3C//DTD SVG 1.1//EN'  'http://www.w3.org/Graphics/SVG/1.1/DTD/svg11.dtd'><svg enable-background="new 0 0 85 85" height="85px" id="Layer_1" version="1.1" viewBox="0 0 85 85" width="85px" xml:space="preserve" xmlns="http://www.w3.org/2000/svg" xmlns:xlink="http://www.w3.org/1999/xlink"><g><line fill="none" stroke="#394553" stroke-linejoin="round" stroke-miterlimit="10" stroke-width="2.5" x1="46.155" x2="49.819" y1="28.698" y2="12.381"/><line fill="none" stroke="#394553" stroke-linejoin="round" stroke-miterlimit="10" stroke-width="2.5" x1="39.248" x2="42.843" y1="60.911" y2="44.146"/><line fill="none" stroke="#394553" stroke-linecap="round" stroke-linejoin="round" stroke-miterlimit="10" stroke-width="2.5" x1="38.713" x2="42.325" y1="63.407" y2="46.562"/><line fill="none" stroke="#394553" stroke-linecap="round" stroke-linejoin="round" stroke-miterlimit="10" stroke-width="2.5" x1="49.819" x2="61.147" y1="12.381" y2="9.987"/><polyline fill="none" points="55.522,43.998    52.86,75.013 30.169,75.013 27.51,43.995  " stroke="#394553" stroke-linejoin="round" stroke-miterlimit="10" stroke-width="2.5"/><rect fill="none" height="5.89" stroke="#394553" stroke-linecap="round" stroke-linejoin="round" stroke-miterlimit="10" stroke-width="2.5" width="35.329" x="23.852" y="33.474"/><path d="M48.549,18.471   c4.876,2.543,8.208,7.646,8.208,13.525v1.316" fill="none" stroke="#394553" stroke-linejoin="round" stroke-miterlimit="10" stroke-width="2.5"/><path d="M43.896,16.939   c-0.775-0.121-1.57-0.185-2.381-0.185c-8.416,0-15.238,6.824-15.238,15.241v1.316" fill="none" stroke="#394553" stroke-linejoin="round" stroke-miterlimit="10" stroke-width="2.5"/><line fill="none" stroke="#394553" stroke-linecap="round" stroke-linejoin="round" stroke-miterlimit="10" stroke-width="2.5" x1="28.909" x2="54.123" y1="54.786" y2="54.786"/><line fill="none" stroke="#394553" stroke-linecap="round" stroke-linejoin="round" stroke-miterlimit="10" stroke-width="2.5" x1="30.114" x2="52.918" y1="69.001" y2="69.001"/></g></svg>