<?xml version="1.0" encoding="utf-8"?>
<!-- Generator: Adobe Illustrator 21.1.0, SVG Export Plug-In . SVG Version: 6.00 Build 0)  -->
<svg version="1.1" id="Layer_1" xmlns="http://www.w3.org/2000/svg" xmlns:xlink="http://www.w3.org/1999/xlink" x="0px" y="0px"
	 viewBox="0 0 159 35.4" style="enable-background:new 0 0 159 35.4;" xml:space="preserve">
<style type="text/css">
	.st0{clip-path:url(#SVGID_2_);fill:#FFFFFF;}
	.st1{clip-path:url(#SVGID_4_);fill:#FFFFFF;}
	.st2{clip-path:url(#SVGID_6_);fill:#FFFFFF;}
	.st3{clip-path:url(#SVGID_8_);fill:#FFFFFF;}
	.st4{clip-path:url(#SVGID_10_);fill:#FFFFFF;}
	.st5{clip-path:url(#SVGID_12_);fill:#FFFFFF;}
	.st6{clip-path:url(#SVGID_14_);fill:#FFFFFF;}
	.st7{clip-path:url(#SVGID_16_);fill:#FFFFFF;}
	.st8{clip-path:url(#SVGID_18_);fill:#FFFFFF;}
	.st9{clip-path:url(#SVGID_20_);fill:#FFFFFF;}
	.st10{clip-path:url(#SVGID_22_);fill:#FFFFFF;}
	.st11{clip-path:url(#SVGID_24_);fill:#FFFFFF;}
	.st12{clip-path:url(#SVGID_26_);fill:none;stroke:#FFFFFF;stroke-width:0.22;stroke-miterlimit:10;}
	.st13{clip-path:url(#SVGID_28_);fill:#FFFFFF;}
	.st14{clip-path:url(#SVGID_30_);fill:none;stroke:#FFFFFF;stroke-width:0.22;stroke-miterlimit:10;}
	.st15{clip-path:url(#SVGID_32_);fill:#FFFFFF;}
	.st16{clip-path:url(#SVGID_34_);fill:none;stroke:#FFFFFF;stroke-width:0.22;stroke-miterlimit:10;}
	.st17{clip-path:url(#SVGID_36_);fill:#FFFFFF;}
	.st18{clip-path:url(#SVGID_38_);fill:none;stroke:#FFFFFF;stroke-width:0.22;stroke-miterlimit:10;}
	.st19{clip-path:url(#SVGID_40_);fill:#FFFFFF;}
	.st20{clip-path:url(#SVGID_42_);fill:none;stroke:#FFFFFF;stroke-width:0.22;stroke-miterlimit:10;}
	.st21{clip-path:url(#SVGID_44_);fill:#FFFFFF;}
	.st22{clip-path:url(#SVGID_46_);fill:none;stroke:#FFFFFF;stroke-width:0.22;stroke-miterlimit:10;}
	.st23{clip-path:url(#SVGID_48_);fill:#FFFFFF;}
	.st24{clip-path:url(#SVGID_50_);fill:none;stroke:#FFFFFF;stroke-width:0.22;stroke-miterlimit:10;}
	.st25{clip-path:url(#SVGID_52_);fill:#FFFFFF;}
	.st26{clip-path:url(#SVGID_54_);fill:none;stroke:#FFFFFF;stroke-width:0.22;stroke-miterlimit:10;}
	.st27{clip-path:url(#SVGID_56_);fill:#FFFFFF;}
	.st28{clip-path:url(#SVGID_58_);fill:none;stroke:#FFFFFF;stroke-width:0.22;stroke-miterlimit:10;}
	.st29{clip-path:url(#SVGID_60_);fill:#FFFFFF;}
	.st30{clip-path:url(#SVGID_62_);fill:none;stroke:#FFFFFF;stroke-width:0.22;stroke-miterlimit:10;}
	.st31{clip-path:url(#SVGID_64_);fill:#FFFFFF;}
	.st32{clip-path:url(#SVGID_66_);fill:none;stroke:#FFFFFF;stroke-width:0.22;stroke-miterlimit:10;}
	.st33{clip-path:url(#SVGID_68_);fill:#FFFFFF;}
	.st34{clip-path:url(#SVGID_70_);fill:none;stroke:#FFFFFF;stroke-width:0.22;stroke-miterlimit:10;}
	.st35{clip-path:url(#SVGID_72_);fill:#FFFFFF;}
	.st36{clip-path:url(#SVGID_74_);fill:none;stroke:#FFFFFF;stroke-width:0.22;stroke-miterlimit:10;}
	.st37{clip-path:url(#SVGID_76_);fill:#FFFFFF;}
	.st38{clip-path:url(#SVGID_78_);fill:none;stroke:#FFFFFF;stroke-width:0.22;stroke-miterlimit:10;}
	.st39{clip-path:url(#SVGID_80_);fill:#FFFFFF;}
	.st40{clip-path:url(#SVGID_82_);fill:none;stroke:#FFFFFF;stroke-width:0.22;stroke-miterlimit:10;}
	.st41{clip-path:url(#SVGID_84_);fill:#FFFFFF;}
	.st42{clip-path:url(#SVGID_86_);fill:none;stroke:#FFFFFF;stroke-width:0.22;stroke-miterlimit:10;}
	.st43{clip-path:url(#SVGID_88_);fill:#FFFFFF;}
	.st44{clip-path:url(#SVGID_90_);fill:none;stroke:#FFFFFF;stroke-width:0.22;stroke-miterlimit:10;}
	.st45{clip-path:url(#SVGID_92_);fill:#FFFFFF;}
	.st46{clip-path:url(#SVGID_94_);fill:none;stroke:#FFFFFF;stroke-width:0.22;stroke-miterlimit:10;}
	.st47{clip-path:url(#SVGID_96_);fill:#FFFFFF;}
	.st48{clip-path:url(#SVGID_98_);fill:#FFFFFF;}
</style>
<g>
	<defs>
		<rect id="SVGID_1_" width="159" height="35.4"/>
	</defs>
	<clipPath id="SVGID_2_">
		<use xlink:href="#SVGID_1_"  style="overflow:visible;"/>
	</clipPath>
	<path class="st0" d="M32.9,17.6c-0.1,0.1-0.6,0.4-1,0.5c-0.1,0.1-0.1,0.3,0,0.4c0.5,1,2.6,4.5,3.8,6c0.7,0.8,1.4,1.1,2.2,1.3
		c0.3,0,0.5,0.3,0.5,0.4c0,0.2-0.2,0.3-0.4,0.4c-0.4,0.2-1.4,0.2-1.7,0.2c-2.3,0-3.3-0.9-3.8-1.6c-0.7-1-2-3-3.1-4.9
		c-0.2-0.4-0.6-0.9-0.8-1.1c-0.2-0.2-0.7-0.3-1.2-0.3c-0.1,0-0.3,0.1-0.3,0.3c-0.1,0.5,0,3.9,0.1,5c0.1,1.1,0.3,1.3,1.4,1.6
		c0.4,0.1,0.6,0.3,0.6,0.5c0,0.3-0.5,0.4-0.8,0.4c-0.9,0-2-0.2-3.2-0.2c-0.9,0-2.2,0.1-2.4,0.1c-0.6,0-0.8-0.2-0.8-0.4
		c0-0.2,0.3-0.3,0.6-0.4c1.2-0.4,1.4-0.7,1.5-1.5c0.2-1.9,0.2-4.1,0.2-6.2c0-2.7-0.1-4.9-0.1-5.5c-0.1-0.6-0.3-1-1.5-1.3
		c-0.4-0.1-0.6-0.3-0.6-0.5c0-0.2,0.3-0.4,0.7-0.4h1.8c0.9,0,3-0.1,4.4-0.1c1.2,0,3.2,0.1,4.4,1.1c0.8,0.6,1.4,1.8,1.4,3
		C34.6,15.7,34,16.7,32.9,17.6 M30.4,12c-0.6-0.6-1.4-0.9-2.1-0.9c-0.1,0-0.8,0.1-1,0.2c-0.1,0.1-0.3,0.4-0.3,0.5
		c-0.1,0.9-0.2,5.3-0.1,5.9c0,0.2,0.2,0.3,0.3,0.3c1.3,0,2.5-0.4,2.7-0.6c0.7-0.5,1.4-1.4,1.4-2.8C31.5,14,31.3,12.9,30.4,12"/>
</g>
<g>
	<defs>
		<rect id="SVGID_3_" x="0" y="0" width="159" height="35.4"/>
	</defs>
	<clipPath id="SVGID_4_">
		<use xlink:href="#SVGID_3_"  style="overflow:visible;"/>
	</clipPath>
	<path class="st1" d="M48.2,21.4c0,2.2-1.3,3.7-2.3,4.3c-1,0.7-2.3,1-3.5,1c-1.1,0-2.6-0.5-3.5-1.3c-1.1-0.9-1.9-2.5-1.9-3.9
		c0-1.8,0.8-3.1,1.7-3.9c0.8-0.7,2.2-1.5,4-1.5C45.4,16.1,48.2,18.1,48.2,21.4 M41.2,17.5c-0.6,0.5-1,1.6-1,3.3
		c0,0.8,0.1,1.8,0.3,2.4c0.5,1.8,1.7,2.6,2.8,2.6c0.3,0,0.7-0.2,1.1-0.6c0.5-0.7,0.9-2,0.9-3.5c0-1.1-0.2-2.7-1-3.8
		c-0.5-0.6-1.1-1-1.8-1C42,17,41.6,17.1,41.2,17.5"/>
</g>
<g>
	<defs>
		<rect id="SVGID_5_" x="0" y="0" width="159" height="35.4"/>
	</defs>
	<clipPath id="SVGID_6_">
		<use xlink:href="#SVGID_5_"  style="overflow:visible;"/>
	</clipPath>
	<path class="st2" d="M52.3,16.4c0.5,0,0.6,0.2,0.6,0.3c0,0.1-0.2,0.3-0.6,0.4c-0.5,0.1-0.6,0.4-0.4,0.8c0.4,1,1.8,4.6,1.9,5
		c0.1,0.1,0.2,0.1,0.2,0c0.3-0.6,1-2,1.4-3c0.1-0.2,0.1-0.3,0.1-0.4c-0.1-0.3-0.4-1.1-0.6-1.5c-0.3-0.5-0.5-0.7-0.9-0.9
		c-0.4-0.1-0.6-0.3-0.6-0.5c0-0.1,0.2-0.3,0.6-0.3c0.4,0,1.3,0.1,2,0.1c0.5,0,1.6-0.1,2.2-0.1c0.4,0,0.6,0.1,0.6,0.3
		c0,0.2-0.2,0.4-0.5,0.4c-0.6,0.2-0.7,0.4-0.7,0.6c0,0.2,0.1,0.4,0.2,0.7c0.2,0.3,1.5,3.7,1.9,4.6c0.1,0.1,0.1,0.1,0.2,0
		c0.3-0.7,0.8-2,1.3-3.2c0.3-0.8,0.5-1.5,0.5-1.8c0-0.3-0.1-0.6-1-0.8c-0.3-0.1-0.6-0.2-0.6-0.4c0-0.2,0.3-0.3,0.6-0.3
		c0.3,0,1.1,0.1,1.6,0.1c0.8,0,1.5-0.1,1.9-0.1c0.3,0,0.6,0.1,0.6,0.3c0,0.3-0.3,0.4-0.7,0.5c-0.5,0.2-0.8,0.5-1.2,1.2
		c-0.7,1.4-1.8,4-2.5,5.5c-0.4,1.1-0.8,2.1-1,2.6c-0.1,0.3-0.3,0.5-0.4,0.5c-0.3,0-0.5-0.3-0.7-0.5c-0.1-0.2-0.4-1.2-0.7-1.9
		c-0.5-1.1-0.9-2.3-1.5-3.5c0-0.1-0.2-0.1-0.2,0c-0.7,1.4-1.6,3.2-2.2,4.7c-0.1,0.3-0.5,1.2-0.8,1.2c-0.2,0-0.4-0.1-0.5-0.4
		c-0.1-0.1-0.4-1.2-0.7-1.9c-0.2-0.5-2-4.9-2.6-6c-0.4-0.8-0.5-1.2-1.3-1.4c-0.4-0.1-0.6-0.2-0.6-0.4c0-0.2,0.2-0.4,0.7-0.4
		c0.5,0,1.9,0.1,2.5,0.1C51.2,16.5,51.8,16.4,52.3,16.4"/>
</g>
<g>
	<defs>
		<rect id="SVGID_7_" x="0" y="0" width="159" height="35.4"/>
	</defs>
	<clipPath id="SVGID_8_">
		<use xlink:href="#SVGID_7_"  style="overflow:visible;"/>
	</clipPath>
	<path class="st3" d="M71.6,17.5c0.3,0.4,0.6,1,0.6,2.2c0,1-0.1,4-0.1,4.3c0,0.7,0.5,1,0.9,1c0.1,0,0.6-0.2,0.9-0.3
		c0.1-0.1,0.1,0,0.2,0c0.1,0.1,0.1,0.3,0.1,0.4c0,0.5-1.2,1.7-2.6,1.7c-0.7,0-1.5-0.2-1.9-1.2c0-0.1-0.2-0.2-0.2-0.1
		c-0.6,0.5-1.7,0.9-2,1.1c-0.3,0.1-0.8,0.2-1.1,0.2c-0.9,0-1.9-1.1-1.9-2.6c0-0.5,0.2-0.9,0.5-1.3c0.3-0.4,0.7-0.5,0.9-0.6
		c0.6-0.2,2.9-0.9,3.4-1c0.3-0.1,0.5-0.3,0.5-0.4c0-0.2,0.1-1.6,0.1-1.9c0-0.6-0.6-1.6-1.7-1.6c-0.4,0-0.6,0.1-0.8,0.2
		c-0.1,0.1-0.2,0.3-0.2,1.2c0,0.1,0,0.2-0.1,0.2c-0.2,0.2-2.1,1-2.2,1c-0.2,0-0.3-0.2-0.3-0.4c0-0.7,0.6-1.4,2.1-2.4
		c0.9-0.6,2.2-0.9,2.5-0.9C70.5,16.1,71.2,16.9,71.6,17.5 M69.2,24.9c0.1-0.1,0.2-0.4,0.2-0.5c0.1-0.4,0.1-1.4,0.1-2.3
		c0-0.1-0.1-0.3-0.2-0.3c-0.4,0-1.6,0.4-2,0.7c-0.3,0.2-0.5,0.4-0.5,1c0,1.1,0.9,1.6,1.4,1.6C68.5,25.2,69,25,69.2,24.9"/>
</g>
<g>
	<defs>
		<rect id="SVGID_9_" x="0" y="0" width="159" height="35.4"/>
	</defs>
	<clipPath id="SVGID_10_">
		<use xlink:href="#SVGID_9_"  style="overflow:visible;"/>
	</clipPath>
	<path class="st4" d="M75.2,17c0.5-0.2,1.6-0.6,2-0.8c0.4-0.2,0.7-0.4,0.9-0.4c0.1,0,0.3,0.3,0.3,0.4c0,0.3,0,0.9,0,1.1
		c0,0.2,0.2,0.1,0.2,0.1c1-0.8,2.1-1.4,3.2-1.4c1.2,0,2,0.6,2.3,1c0.6,0.7,0.9,1.8,0.9,3.1c0,0.5,0.1,4.3,0.1,4.6
		c0.1,0.4,0.2,0.7,0.9,0.9c0.5,0.1,0.7,0.3,0.7,0.5c0,0.2-0.3,0.4-0.7,0.4c-0.6,0-1.6-0.1-2.3-0.1c-0.6,0-1.6,0.1-2,0.1
		c-0.4,0-0.7-0.1-0.7-0.4c0-0.2,0.3-0.3,0.6-0.4c0.6-0.2,0.7-0.5,0.8-1.3c0.1-0.8,0.1-4,0.1-4.7c0-0.5-0.2-1.2-0.6-1.5
		c-0.3-0.3-0.9-0.5-1.4-0.5c-0.9,0-1.3,0.3-1.7,0.5c-0.1,0.1-0.2,0.4-0.3,0.6c0,0.4,0,5.9,0.1,6.2c0,0.4,0.1,0.5,0.9,0.8
		c0.2,0.1,0.4,0.3,0.4,0.4c0,0.2-0.3,0.4-0.7,0.4c-0.5,0-1.4-0.1-1.9-0.1c-0.9,0-1.9,0.1-2.4,0.1c-0.4,0-0.7-0.2-0.7-0.4
		c0-0.2,0.3-0.3,0.5-0.4c0.8-0.3,1-0.5,1-1.4c0.1-0.8,0.1-2.8,0.1-5.3c0-0.3-0.2-0.5-0.7-1c-0.2-0.2-0.3-0.3-0.3-0.4
		C74.7,17.4,75,17.1,75.2,17"/>
</g>
<g>
	<defs>
		<rect id="SVGID_11_" x="0" y="0" width="159" height="35.4"/>
	</defs>
	<clipPath id="SVGID_12_">
		<use xlink:href="#SVGID_11_"  style="overflow:visible;"/>
	</clipPath>
	<path class="st5" d="M101.5,10.4c0.6,0.2,1.2,0.3,1.8,0.4c0.2,0,0.4,0.3,0.4,0.7c0,0.7,0.1,1.6,0.1,2.3c0,0.5-0.2,1-0.4,1
		c-0.1,0-0.4-0.3-0.5-0.7c-0.3-0.8-0.6-1.5-1.1-1.8c-1.1-0.9-2.4-1.5-3.7-1.5c-4,0-5.9,3.2-5.9,7c0,1.7,0.3,3.2,0.9,4.3
		c1.4,2.8,3.7,3.8,5.7,3.8c0.3,0,1.6-0.1,2.5-0.6c0.9-0.5,1.6-1.3,2.2-2.3c0.3-0.6,0.5-0.8,0.7-0.8c0.3,0,0.3,0.7,0.2,0.9
		c-0.1,0.6-0.5,1.7-0.8,2.2c-0.1,0.2-0.5,0.6-0.9,0.8c-0.4,0.1-2.1,0.7-4.4,0.7c-3.7,0-6.4-1.7-7.4-2.9c-1-1.1-2.1-2.9-2.1-5.7
		c0-3.1,1.7-5.2,2.8-6.1c2.2-1.8,4.8-2.3,6.8-2.3C99.4,10,100.6,10.2,101.5,10.4"/>
</g>
<g>
	<defs>
		<rect id="SVGID_13_" x="0" y="0" width="159" height="35.4"/>
	</defs>
	<clipPath id="SVGID_14_">
		<use xlink:href="#SVGID_13_"  style="overflow:visible;"/>
	</clipPath>
	<path class="st6" d="M116.4,21.4c0,2.2-1.3,3.7-2.3,4.3c-1,0.7-2.3,1-3.5,1c-1.1,0-2.6-0.5-3.5-1.3c-1.1-0.9-1.9-2.5-1.9-3.9
		c0-1.8,0.8-3.1,1.7-3.9c0.8-0.7,2.2-1.5,4-1.5C113.6,16.1,116.4,18.1,116.4,21.4 M109.3,17.5c-0.6,0.5-1,1.6-1,3.3
		c0,0.8,0.1,1.8,0.3,2.4c0.5,1.8,1.7,2.6,2.8,2.6c0.3,0,0.7-0.2,1.1-0.6c0.5-0.7,0.9-2,0.9-3.5c0-1.1-0.2-2.7-1-3.8
		c-0.5-0.6-1.1-1-1.8-1C110.1,17,109.7,17.1,109.3,17.5"/>
</g>
<g>
	<defs>
		<rect id="SVGID_15_" width="159" height="35.4"/>
	</defs>
	<clipPath id="SVGID_16_">
		<use xlink:href="#SVGID_15_"  style="overflow:visible;"/>
	</clipPath>
	<path class="st7" d="M117.3,9.6c1.1-0.3,2.3-0.5,3.3-1.1c0.1-0.1,0.3,0.2,0.3,0.3c-0.1,0.9-0.2,6-0.2,9.8c0,2,0,5.3,0.1,6.1
		c0.1,0.6,0.2,0.9,1.1,1.2c0.4,0.1,0.5,0.3,0.5,0.4c0,0.2-0.4,0.3-0.7,0.3c-0.6,0-2-0.1-2.5-0.1c-0.6,0-1.8,0.1-2.4,0.1
		c-0.6,0-0.7-0.2-0.7-0.3c0-0.3,0.3-0.4,0.6-0.4c0.8-0.2,1-0.6,1.1-1.9c0.1-1.1,0.2-4,0.2-8c0-1.3,0-3.7,0-4.4
		c0-0.3-0.2-0.5-0.7-0.9c-0.3-0.3-0.5-0.4-0.5-0.5C116.9,10,117,9.7,117.3,9.6"/>
	<path class="st7" d="M123.7,9.6c1.1-0.3,2.3-0.5,3.3-1.1c0.1-0.1,0.3,0.2,0.3,0.3c-0.1,0.9-0.2,6-0.2,9.8c0,2,0,5.3,0.1,6.1
		c0.1,0.6,0.2,0.9,1.1,1.2c0.4,0.1,0.5,0.3,0.5,0.4c0,0.2-0.4,0.3-0.7,0.3c-0.6,0-2.1-0.1-2.5-0.1c-0.6,0-1.8,0.1-2.4,0.1
		c-0.6,0-0.7-0.2-0.7-0.3c0-0.3,0.3-0.4,0.6-0.4c0.8-0.2,1-0.6,1.1-1.9c0.1-1.1,0.2-4,0.2-8c0-1.3,0-3.7,0-4.4
		c0-0.3-0.2-0.5-0.7-0.9c-0.3-0.3-0.5-0.4-0.5-0.5C123.2,10,123.4,9.7,123.7,9.6"/>
</g>
<g>
	<defs>
		<rect id="SVGID_17_" x="0" y="0" width="159" height="35.4"/>
	</defs>
	<clipPath id="SVGID_18_">
		<use xlink:href="#SVGID_17_"  style="overflow:visible;"/>
	</clipPath>
	<path class="st8" d="M137.2,17.2c0.6,0.6,1,1.3,1,2.2c0,0.2-0.3,0.6-0.6,0.6h-5.5c-0.1,0-0.3,0.1-0.3,0.2c-0.1,0.2-0.1,0.6-0.1,0.9
		c0,0.6,0.3,1.7,0.8,2.4c0.6,0.8,1.7,1.3,2.8,1.3c1.1,0,1.8-0.3,2.3-0.9c0.1-0.2,0.2-0.3,0.3-0.3c0.1,0,0.2,0.2,0.2,0.3
		c0,0.2-0.1,0.4-0.2,0.6c-0.8,1.2-2,2.2-4,2.2c-2.9,0-4.7-2.2-4.7-5.1c0-2,1.1-4,3.2-5c0.6-0.3,1.4-0.5,2.1-0.5
		C135.5,16.1,136.6,16.5,137.2,17.2 M132,19c0,0.1,0.1,0.3,0.2,0.3c0.7,0,1.4,0,2.7,0c0.4,0,0.9-0.3,0.9-0.9c0-0.7-0.7-1.5-1.4-1.5
		C133.3,16.8,132.3,17.8,132,19"/>
</g>
<g>
	<defs>
		<rect id="SVGID_19_" x="0" y="0" width="159" height="35.4"/>
	</defs>
	<clipPath id="SVGID_20_">
		<use xlink:href="#SVGID_19_"  style="overflow:visible;"/>
	</clipPath>
	<path class="st9" d="M146.4,16.4c0.3,0.1,0.5,0.2,0.7,0.2c0.6,0,2.4,0.1,2.9,0.2c0.2,0,0.3,0.2,0.3,0.3c0,0.4-0.5,1-0.6,1
		c-0.2,0-0.9,0-1.5-0.1c-0.1,0-0.2,0.2-0.2,0.2c0.1,0.3,0.2,0.7,0.2,1.1c0,1.4-0.5,2.4-1.4,3.2c-1.1,0.8-2.5,1-3.1,1
		c-0.2,0-0.8,0-1-0.1c-0.2,0-0.3,0-0.4,0.1c-0.2,0.1-0.5,0.5-0.5,0.7c0,0.5,0.6,0.9,0.9,0.9c1.1,0.1,4,0.1,4.8,0.2
		c0.3,0.1,0.8,0.3,1.3,0.6c0.7,0.6,1.1,1.5,1.1,2.3c0,2-1.6,3.4-2.6,4c-1.3,0.8-2.6,1.1-3.8,1.1c-1.3,0-2.3-0.3-3.2-0.9
		c-0.8-0.6-1.3-1.5-1.3-2.3c0-0.9,0.5-1.3,0.8-1.5c0.5-0.3,1.3-0.8,1.6-1c0.1,0,0.1-0.1,0-0.2c-0.2-0.1-0.7-0.3-1-0.5
		c-0.6-0.4-1-1.1-1-2c0-0.1,0.1-0.3,0.2-0.3c0.2-0.2,1.6-1,2-1.4c0.1,0,0.1-0.2-0.1-0.3c-0.7-0.4-2.1-1.4-2.1-3.2
		c0-1.1,0.5-2.1,1.5-2.9c0.8-0.6,1.8-0.9,3.1-0.9C145,16,145.7,16.2,146.4,16.4 M146.5,31.7c0.9-0.5,1.1-1.3,1.1-2
		c0-0.4-0.1-0.9-0.4-1.2c-0.3-0.4-0.7-0.6-1.4-0.7c-0.9-0.1-1.3-0.1-2.6-0.1c-0.6,0-1,0.2-1.2,0.3c-0.5,0.5-0.8,1.1-0.8,1.6
		c0,0.7,0.4,1.4,0.9,1.8c0.7,0.5,1.6,0.7,2.5,0.7C145.2,32.1,145.9,32,146.5,31.7 M142.7,17.3c-0.4,0.5-0.6,1.2-0.6,2.2
		c0,1.6,0.8,3.3,2,3.3c0.2,0,0.5-0.2,0.8-0.4c0.4-0.4,0.7-1.5,0.7-2.6c0-0.4-0.2-1.5-0.6-2.1c-0.4-0.6-0.9-0.9-1.4-0.9
		C143.3,16.7,142.9,17,142.7,17.3"/>
</g>
<g>
	<defs>
		<rect id="SVGID_21_" x="0" y="0" width="159" height="35.4"/>
	</defs>
	<clipPath id="SVGID_22_">
		<use xlink:href="#SVGID_21_"  style="overflow:visible;"/>
	</clipPath>
	<path class="st10" d="M158,17.2c0.6,0.6,1,1.3,1,2.2c0,0.2-0.3,0.6-0.6,0.6h-5.5c-0.1,0-0.3,0.1-0.3,0.2c-0.1,0.2-0.1,0.6-0.1,0.9
		c0,0.6,0.3,1.7,0.8,2.4c0.6,0.8,1.7,1.3,2.8,1.3c1.1,0,1.8-0.3,2.3-0.9c0.1-0.2,0.2-0.3,0.3-0.3c0.1,0,0.2,0.2,0.2,0.3
		c0,0.2-0.1,0.4-0.2,0.6c-0.8,1.2-2,2.2-4,2.2c-2.9,0-4.7-2.2-4.7-5.1c0-2,1.1-4,3.2-5c0.6-0.3,1.4-0.5,2.1-0.5
		C156.3,16.1,157.3,16.5,158,17.2 M152.8,19c0,0.1,0.1,0.3,0.2,0.3c0.7,0,1.4,0,2.7,0c0.4,0,0.9-0.3,0.9-0.9c0-0.7-0.7-1.5-1.4-1.5
		C154.1,16.8,153.1,17.8,152.8,19"/>
</g>
<g>
	<defs>
		<rect id="SVGID_23_" x="0" y="0" width="159" height="35.4"/>
	</defs>
	<clipPath id="SVGID_24_">
		<use xlink:href="#SVGID_23_"  style="overflow:visible;"/>
	</clipPath>
	<path class="st11" d="M39.2,34.8c-0.1,0.1-0.2,0.1-0.3,0.2c-0.1,0-0.3,0.1-0.4,0.1c-0.1,0-0.3,0-0.4-0.1c-0.1-0.1-0.2-0.1-0.3-0.2
		c-0.1-0.1-0.2-0.2-0.2-0.3c-0.1-0.1-0.1-0.3-0.1-0.4c0-0.1,0-0.3,0.1-0.4c0.1-0.1,0.1-0.2,0.2-0.3c0.1-0.1,0.2-0.2,0.4-0.2
		c0.1-0.1,0.3-0.1,0.4-0.1h0.7v-0.1c0-0.3-0.1-0.5-0.2-0.6c-0.1-0.2-0.3-0.3-0.5-0.3c-0.1,0-0.3,0-0.4,0c-0.1,0-0.3,0-0.4,0.1
		l-0.1-0.3c0.1,0,0.3-0.1,0.4-0.1c0.1,0,0.3,0,0.4,0c0.1,0,0.3,0,0.4,0.1c0.1,0.1,0.2,0.1,0.3,0.2c0.1,0.1,0.2,0.2,0.2,0.4
		c0.1,0.1,0.1,0.3,0.1,0.4v0.1c0,0.1,0,0.2,0,0.3c0,0.1,0,0.2,0,0.3V34c0,0.1,0,0.2,0,0.4c0,0.1,0,0.2,0,0.3c0,0.1,0,0.2,0,0.2
		c0,0.1,0,0.1,0,0.1h-0.5V34.8z M39.2,33.4h-0.7c-0.1,0-0.2,0-0.3,0c-0.1,0-0.2,0.1-0.2,0.1c-0.1,0.1-0.1,0.1-0.2,0.2
		S37.8,34,37.8,34c0,0.1,0,0.2,0.1,0.3c0,0.1,0.1,0.1,0.2,0.2c0.1,0.1,0.1,0.1,0.2,0.1c0.1,0,0.2,0,0.3,0c0.1,0,0.2,0,0.3,0
		c0.1,0,0.2-0.1,0.2-0.1c0.1-0.1,0.1-0.1,0.2-0.2c0-0.1,0.1-0.2,0.1-0.3V33.4z"/>
</g>
<g>
	<defs>
		<rect id="SVGID_25_" x="0" y="0" width="158.9" height="35.4"/>
	</defs>
	<clipPath id="SVGID_26_">
		<use xlink:href="#SVGID_25_"  style="overflow:visible;"/>
	</clipPath>
	<path class="st12" d="M39.2,34.8c-0.1,0.1-0.2,0.1-0.3,0.2c-0.1,0-0.3,0.1-0.4,0.1c-0.1,0-0.3,0-0.4-0.1c-0.1-0.1-0.2-0.1-0.3-0.2
		c-0.1-0.1-0.2-0.2-0.2-0.3c-0.1-0.1-0.1-0.3-0.1-0.4c0-0.1,0-0.3,0.1-0.4c0.1-0.1,0.1-0.2,0.2-0.3c0.1-0.1,0.2-0.2,0.4-0.2
		c0.1-0.1,0.3-0.1,0.4-0.1h0.7v-0.1c0-0.3-0.1-0.5-0.2-0.6c-0.1-0.2-0.3-0.3-0.5-0.3c-0.1,0-0.3,0-0.4,0c-0.1,0-0.3,0-0.4,0.1
		l-0.1-0.3c0.1,0,0.3-0.1,0.4-0.1c0.1,0,0.3,0,0.4,0c0.1,0,0.3,0,0.4,0.1c0.1,0.1,0.2,0.1,0.3,0.2c0.1,0.1,0.2,0.2,0.2,0.4
		c0.1,0.1,0.1,0.3,0.1,0.4v0.1c0,0.1,0,0.2,0,0.3c0,0.1,0,0.2,0,0.3V34c0,0.1,0,0.2,0,0.4c0,0.1,0,0.2,0,0.3c0,0.1,0,0.2,0,0.2
		c0,0.1,0,0.1,0,0.1h-0.5V34.8z M39.2,33.4h-0.7c-0.1,0-0.2,0-0.3,0c-0.1,0-0.2,0.1-0.2,0.1c-0.1,0.1-0.1,0.1-0.2,0.2
		S37.8,34,37.8,34c0,0.1,0,0.2,0.1,0.3c0,0.1,0.1,0.1,0.2,0.2c0.1,0.1,0.1,0.1,0.2,0.1c0.1,0,0.2,0,0.3,0c0.1,0,0.2,0,0.3,0
		c0.1,0,0.2-0.1,0.2-0.1c0.1-0.1,0.1-0.1,0.2-0.2c0-0.1,0.1-0.2,0.1-0.3V33.4z"/>
</g>
<g>
	<defs>
		<rect id="SVGID_27_" x="0" y="0" width="159" height="35.4"/>
	</defs>
	<clipPath id="SVGID_28_">
		<use xlink:href="#SVGID_27_"  style="overflow:visible;"/>
	</clipPath>
	<polygon class="st13" points="41.1,30.5 41.1,31.7 42,31.7 42,32.1 41.1,32.1 41.1,35 40.8,35 40.8,32.1 40.3,32.1 40.3,31.7 
		40.8,31.7 40.8,30.5 	"/>
</g>
<g>
	<defs>
		<rect id="SVGID_29_" x="0" y="0" width="158.9" height="35.4"/>
	</defs>
	<clipPath id="SVGID_30_">
		<use xlink:href="#SVGID_29_"  style="overflow:visible;"/>
	</clipPath>
	<polygon class="st14" points="41.1,30.5 41.1,31.7 42,31.7 42,32.1 41.1,32.1 41.1,35 40.8,35 40.8,32.1 40.3,32.1 40.3,31.7 
		40.8,31.7 40.8,30.5 	"/>
</g>
<g>
	<defs>
		<rect id="SVGID_31_" x="0" y="0" width="159" height="35.4"/>
	</defs>
	<clipPath id="SVGID_32_">
		<use xlink:href="#SVGID_31_"  style="overflow:visible;"/>
	</clipPath>
	<path class="st15" d="M50.1,34.4c-0.3,0.3-0.6,0.5-0.9,0.7c-0.3,0.2-0.7,0.2-1.1,0.2c-0.4,0-0.8-0.1-1.2-0.3
		c-0.4-0.2-0.7-0.4-1-0.7c-0.3-0.3-0.5-0.7-0.6-1.1C45.1,32.9,45,32.4,45,32c0-0.5,0.1-0.9,0.2-1.3c0.2-0.4,0.4-0.8,0.6-1.1
		c0.3-0.3,0.6-0.5,1-0.7c0.4-0.2,0.7-0.3,1.2-0.3c0.4,0,0.8,0.1,1.1,0.3c0.4,0.2,0.7,0.4,1,0.7L49.8,30c-0.2-0.2-0.5-0.4-0.8-0.6
		c-0.3-0.1-0.6-0.2-0.9-0.2c-0.3,0-0.7,0.1-1,0.2c-0.3,0.1-0.6,0.3-0.8,0.6c-0.2,0.3-0.4,0.5-0.5,0.9c-0.1,0.3-0.2,0.7-0.2,1.1
		c0,0.4,0.1,0.8,0.2,1.1c0.1,0.3,0.3,0.6,0.5,0.9c0.2,0.3,0.5,0.5,0.8,0.6c0.3,0.1,0.6,0.2,1,0.2c0.3,0,0.6-0.1,0.8-0.2
		c0.3-0.1,0.5-0.3,0.7-0.5v-1.7h-1.8v-0.5h2.3L50.1,34.4L50.1,34.4z"/>
</g>
<g>
	<defs>
		<rect id="SVGID_33_" x="0" y="0" width="158.9" height="35.4"/>
	</defs>
	<clipPath id="SVGID_34_">
		<use xlink:href="#SVGID_33_"  style="overflow:visible;"/>
	</clipPath>
	<path class="st16" d="M50.1,34.4c-0.3,0.3-0.6,0.5-0.9,0.7c-0.3,0.2-0.7,0.2-1.1,0.2c-0.4,0-0.8-0.1-1.2-0.3
		c-0.4-0.2-0.7-0.4-1-0.7c-0.3-0.3-0.5-0.7-0.6-1.1C45.1,32.9,45,32.4,45,32c0-0.5,0.1-0.9,0.2-1.3c0.2-0.4,0.4-0.8,0.6-1.1
		c0.3-0.3,0.6-0.5,1-0.7c0.4-0.2,0.7-0.3,1.2-0.3c0.4,0,0.8,0.1,1.1,0.3c0.4,0.2,0.7,0.4,1,0.7L49.8,30c-0.2-0.2-0.5-0.4-0.8-0.6
		c-0.3-0.1-0.6-0.2-0.9-0.2c-0.3,0-0.7,0.1-1,0.2c-0.3,0.1-0.6,0.3-0.8,0.6c-0.2,0.3-0.4,0.5-0.5,0.9c-0.1,0.3-0.2,0.7-0.2,1.1
		c0,0.4,0.1,0.8,0.2,1.1c0.1,0.3,0.3,0.6,0.5,0.9c0.2,0.3,0.5,0.5,0.8,0.6c0.3,0.1,0.6,0.2,1,0.2c0.3,0,0.6-0.1,0.8-0.2
		c0.3-0.1,0.5-0.3,0.7-0.5v-1.7h-1.8v-0.5h2.3L50.1,34.4L50.1,34.4z"/>
</g>
<g>
	<defs>
		<rect id="SVGID_35_" x="0" y="0" width="159" height="35.4"/>
	</defs>
	<clipPath id="SVGID_36_">
		<use xlink:href="#SVGID_35_"  style="overflow:visible;"/>
	</clipPath>
	<polygon class="st17" points="51.8,34.7 54.9,34.7 54.9,35.2 51.3,35.2 51.3,28.7 51.8,28.7 	"/>
</g>
<g>
	<defs>
		<rect id="SVGID_37_" x="0" y="0" width="158.9" height="35.4"/>
	</defs>
	<clipPath id="SVGID_38_">
		<use xlink:href="#SVGID_37_"  style="overflow:visible;"/>
	</clipPath>
	<polygon class="st18" points="51.8,34.7 54.9,34.7 54.9,35.2 51.3,35.2 51.3,28.7 51.8,28.7 	"/>
</g>
<g>
	<defs>
		<rect id="SVGID_39_" x="0" y="0" width="159" height="35.4"/>
	</defs>
	<clipPath id="SVGID_40_">
		<use xlink:href="#SVGID_39_"  style="overflow:visible;"/>
	</clipPath>
	<path class="st19" d="M60.2,34.4c-0.3,0.3-0.6,0.5-0.9,0.7c-0.4,0.2-0.7,0.2-1.1,0.2c-0.4,0-0.8-0.1-1.1-0.3
		c-0.4-0.2-0.7-0.4-0.9-0.7c-0.3-0.3-0.5-0.7-0.6-1.1c-0.2-0.4-0.2-0.9-0.2-1.3c0-0.5,0.1-0.9,0.2-1.3c0.2-0.4,0.4-0.8,0.6-1.1
		c0.3-0.3,0.6-0.5,1-0.7c0.4-0.2,0.7-0.3,1.2-0.3c0.4,0,0.8,0.1,1.2,0.3c0.4,0.2,0.7,0.4,0.9,0.7c0.3,0.3,0.5,0.6,0.6,1.1
		c0.2,0.4,0.2,0.8,0.2,1.3c0,0.5-0.1,0.9-0.2,1.4C60.8,33.7,60.5,34.1,60.2,34.4 M59.9,29.9c-0.2-0.2-0.5-0.4-0.8-0.5
		c-0.3-0.1-0.6-0.2-0.9-0.2c-0.3,0-0.7,0.1-1,0.2c-0.3,0.1-0.6,0.3-0.8,0.6c-0.2,0.2-0.4,0.5-0.5,0.9c-0.1,0.3-0.2,0.7-0.2,1.1
		c0,0.4,0.1,0.8,0.2,1.1c0.1,0.3,0.3,0.6,0.5,0.9c0.2,0.3,0.5,0.5,0.8,0.6c0.3,0.1,0.6,0.2,1,0.2c0.4,0,0.7-0.1,1-0.2
		c0.3-0.1,0.6-0.3,0.8-0.6s0.4-0.6,0.5-0.9c0.1-0.3,0.2-0.7,0.2-1.1c0-0.4-0.1-0.8-0.2-1.1C60.3,30.5,60.1,30.2,59.9,29.9"/>
</g>
<g>
	<defs>
		<rect id="SVGID_41_" x="0" y="0" width="158.9" height="35.4"/>
	</defs>
	<clipPath id="SVGID_42_">
		<use xlink:href="#SVGID_41_"  style="overflow:visible;"/>
	</clipPath>
	<path class="st20" d="M60.2,34.4c-0.3,0.3-0.6,0.5-0.9,0.7c-0.4,0.2-0.7,0.2-1.1,0.2c-0.4,0-0.8-0.1-1.1-0.3
		c-0.4-0.2-0.7-0.4-0.9-0.7c-0.3-0.3-0.5-0.7-0.6-1.1c-0.2-0.4-0.2-0.9-0.2-1.3c0-0.5,0.1-0.9,0.2-1.3c0.2-0.4,0.4-0.8,0.6-1.1
		c0.3-0.3,0.6-0.5,1-0.7c0.4-0.2,0.7-0.3,1.2-0.3c0.4,0,0.8,0.1,1.2,0.3c0.4,0.2,0.7,0.4,0.9,0.7c0.3,0.3,0.5,0.6,0.6,1.1
		c0.2,0.4,0.2,0.8,0.2,1.3c0,0.5-0.1,0.9-0.2,1.4C60.8,33.7,60.5,34.1,60.2,34.4z M59.9,29.9c-0.2-0.2-0.5-0.4-0.8-0.5
		c-0.3-0.1-0.6-0.2-0.9-0.2c-0.3,0-0.7,0.1-1,0.2c-0.3,0.1-0.6,0.3-0.8,0.6c-0.2,0.2-0.4,0.5-0.5,0.9c-0.1,0.3-0.2,0.7-0.2,1.1
		c0,0.4,0.1,0.8,0.2,1.1c0.1,0.3,0.3,0.6,0.5,0.9c0.2,0.3,0.5,0.5,0.8,0.6c0.3,0.1,0.6,0.2,1,0.2c0.4,0,0.7-0.1,1-0.2
		c0.3-0.1,0.6-0.3,0.8-0.6s0.4-0.6,0.5-0.9c0.1-0.3,0.2-0.7,0.2-1.1c0-0.4-0.1-0.8-0.2-1.1C60.3,30.5,60.1,30.2,59.9,29.9z"/>
</g>
<g>
	<defs>
		<rect id="SVGID_43_" x="0" y="0" width="159" height="35.4"/>
	</defs>
	<clipPath id="SVGID_44_">
		<use xlink:href="#SVGID_43_"  style="overflow:visible;"/>
	</clipPath>
	<path class="st21" d="M62.6,33.6c0,0.2,0.1,0.3,0.2,0.5c0.1,0.1,0.3,0.3,0.4,0.4c0.2,0.1,0.4,0.2,0.6,0.3c0.2,0.1,0.5,0.1,0.7,0.1
		c0.2,0,0.5,0,0.7-0.1c0.2-0.1,0.4-0.2,0.6-0.3c0.2-0.1,0.3-0.2,0.4-0.4c0.1-0.1,0.2-0.3,0.2-0.5v-4.9h0.5v4.9
		c0,0.2-0.1,0.5-0.2,0.7c-0.1,0.2-0.3,0.4-0.5,0.6c-0.2,0.2-0.5,0.3-0.8,0.4c-0.3,0.1-0.6,0.1-0.9,0.1c-0.3,0-0.6,0-0.9-0.1
		c-0.3-0.1-0.5-0.2-0.8-0.4c-0.2-0.2-0.4-0.3-0.5-0.6c-0.1-0.2-0.2-0.4-0.2-0.7v-4.9h0.5V33.6z"/>
</g>
<g>
	<defs>
		<rect id="SVGID_45_" x="0" y="0" width="158.9" height="35.4"/>
	</defs>
	<clipPath id="SVGID_46_">
		<use xlink:href="#SVGID_45_"  style="overflow:visible;"/>
	</clipPath>
	<path class="st22" d="M62.6,33.6c0,0.2,0.1,0.3,0.2,0.5c0.1,0.1,0.3,0.3,0.4,0.4c0.2,0.1,0.4,0.2,0.6,0.3c0.2,0.1,0.5,0.1,0.7,0.1
		c0.2,0,0.5,0,0.7-0.1c0.2-0.1,0.4-0.2,0.6-0.3c0.2-0.1,0.3-0.2,0.4-0.4c0.1-0.1,0.2-0.3,0.2-0.5v-4.9h0.5v4.9
		c0,0.2-0.1,0.5-0.2,0.7c-0.1,0.2-0.3,0.4-0.5,0.6c-0.2,0.2-0.5,0.3-0.8,0.4c-0.3,0.1-0.6,0.1-0.9,0.1c-0.3,0-0.6,0-0.9-0.1
		c-0.3-0.1-0.5-0.2-0.8-0.4c-0.2-0.2-0.4-0.3-0.5-0.6c-0.1-0.2-0.2-0.4-0.2-0.7v-4.9h0.5V33.6z"/>
</g>
<g>
	<defs>
		<rect id="SVGID_47_" x="0" y="0" width="159" height="35.4"/>
	</defs>
	<clipPath id="SVGID_48_">
		<use xlink:href="#SVGID_47_"  style="overflow:visible;"/>
	</clipPath>
	<path class="st23" d="M72.7,30c-0.2-0.2-0.5-0.4-0.8-0.6c-0.3-0.1-0.6-0.2-0.9-0.2c-0.3,0-0.6,0.1-0.9,0.2
		c-0.3,0.1-0.6,0.3-0.8,0.6c-0.2,0.3-0.4,0.5-0.5,0.9c-0.1,0.3-0.2,0.7-0.2,1.1c0,0.4,0.1,0.7,0.2,1.1c0.1,0.3,0.3,0.6,0.5,0.9
		c0.2,0.3,0.5,0.5,0.8,0.6c0.3,0.2,0.6,0.2,1,0.2c0.3,0,0.6-0.1,0.9-0.2c0.3-0.1,0.6-0.3,0.8-0.6l0.4,0.3c-0.3,0.3-0.6,0.5-1,0.7
		c-0.4,0.2-0.7,0.3-1.1,0.3c-0.4,0-0.8-0.1-1.1-0.3c-0.4-0.2-0.7-0.4-1-0.7c-0.3-0.3-0.5-0.7-0.7-1.1C68.1,32.9,68,32.4,68,32
		c0-0.4,0.1-0.9,0.2-1.3c0.2-0.4,0.4-0.8,0.6-1.1c0.3-0.3,0.6-0.5,0.9-0.7c0.4-0.2,0.7-0.3,1.2-0.3c0.4,0,0.8,0.1,1.1,0.3
		c0.4,0.2,0.7,0.4,0.9,0.7L72.7,30z"/>
</g>
<g>
	<defs>
		<rect id="SVGID_49_" x="0" y="0" width="158.9" height="35.4"/>
	</defs>
	<clipPath id="SVGID_50_">
		<use xlink:href="#SVGID_49_"  style="overflow:visible;"/>
	</clipPath>
	<path class="st24" d="M72.7,30c-0.2-0.2-0.5-0.4-0.8-0.6c-0.3-0.1-0.6-0.2-0.9-0.2c-0.3,0-0.6,0.1-0.9,0.2
		c-0.3,0.1-0.6,0.3-0.8,0.6c-0.2,0.3-0.4,0.5-0.5,0.9c-0.1,0.3-0.2,0.7-0.2,1.1c0,0.4,0.1,0.7,0.2,1.1c0.1,0.3,0.3,0.6,0.5,0.9
		c0.2,0.3,0.5,0.5,0.8,0.6c0.3,0.2,0.6,0.2,1,0.2c0.3,0,0.6-0.1,0.9-0.2c0.3-0.1,0.6-0.3,0.8-0.6l0.4,0.3c-0.3,0.3-0.6,0.5-1,0.7
		c-0.4,0.2-0.7,0.3-1.1,0.3c-0.4,0-0.8-0.1-1.1-0.3c-0.4-0.2-0.7-0.4-1-0.7c-0.3-0.3-0.5-0.7-0.7-1.1C68.1,32.9,68,32.4,68,32
		c0-0.4,0.1-0.9,0.2-1.3c0.2-0.4,0.4-0.8,0.6-1.1c0.3-0.3,0.6-0.5,0.9-0.7c0.4-0.2,0.7-0.3,1.2-0.3c0.4,0,0.8,0.1,1.1,0.3
		c0.4,0.2,0.7,0.4,0.9,0.7L72.7,30z"/>
</g>
<g>
	<defs>
		<rect id="SVGID_51_" x="0" y="0" width="159" height="35.4"/>
	</defs>
	<clipPath id="SVGID_52_">
		<use xlink:href="#SVGID_51_"  style="overflow:visible;"/>
	</clipPath>
	<polygon class="st25" points="77.5,32 74.7,32 74.7,34.7 78,34.7 78,35.2 74.2,35.2 74.2,28.7 78,28.7 78,29.2 74.7,29.2 
		74.7,31.5 77.5,31.5 	"/>
</g>
<g>
	<defs>
		<rect id="SVGID_53_" x="0" y="0" width="158.9" height="35.4"/>
	</defs>
	<clipPath id="SVGID_54_">
		<use xlink:href="#SVGID_53_"  style="overflow:visible;"/>
	</clipPath>
	<polygon class="st26" points="77.5,32 74.7,32 74.7,34.7 78,34.7 78,35.2 74.2,35.2 74.2,28.7 78,28.7 78,29.2 74.7,29.2 
		74.7,31.5 77.5,31.5 	"/>
</g>
<g>
	<defs>
		<rect id="SVGID_55_" x="0" y="0" width="159" height="35.4"/>
	</defs>
	<clipPath id="SVGID_56_">
		<use xlink:href="#SVGID_55_"  style="overflow:visible;"/>
	</clipPath>
	<path class="st27" d="M79.5,34c0.2,0.2,0.3,0.4,0.6,0.6c0.2,0.1,0.5,0.2,0.8,0.2c0.2,0,0.4,0,0.5-0.1c0.2-0.1,0.3-0.1,0.5-0.3
		c0.1-0.1,0.2-0.2,0.3-0.4c0.1-0.1,0.1-0.3,0.1-0.5c0-0.2,0-0.3-0.1-0.5c-0.1-0.1-0.2-0.3-0.3-0.4c-0.1-0.1-0.3-0.2-0.4-0.3
		s-0.3-0.1-0.5-0.2c-0.3,0-0.5-0.1-0.8-0.2c-0.2-0.1-0.4-0.2-0.6-0.4c-0.2-0.2-0.3-0.4-0.4-0.6c-0.1-0.2-0.1-0.4-0.1-0.7
		c0-0.3,0.1-0.5,0.2-0.7c0.1-0.2,0.3-0.4,0.4-0.6s0.4-0.3,0.6-0.4c0.2-0.1,0.5-0.1,0.8-0.1c0.4,0,0.7,0.1,1,0.2
		c0.3,0.1,0.5,0.3,0.8,0.6l-0.4,0.3c-0.2-0.2-0.3-0.3-0.6-0.5c-0.2-0.1-0.5-0.2-0.8-0.2c-0.2,0-0.4,0-0.6,0.1
		c-0.2,0.1-0.3,0.2-0.5,0.3c-0.1,0.1-0.3,0.2-0.3,0.4c-0.1,0.2-0.1,0.3-0.1,0.5c0,0.2,0,0.3,0.1,0.5c0.1,0.2,0.2,0.3,0.3,0.4
		s0.3,0.2,0.5,0.3c0.2,0.1,0.4,0.1,0.6,0.1c0.3,0,0.5,0.1,0.7,0.2c0.2,0.1,0.4,0.2,0.6,0.4c0.2,0.2,0.3,0.3,0.4,0.5
		c0.1,0.2,0.1,0.4,0.1,0.6c0,0.2-0.1,0.5-0.2,0.7c-0.1,0.2-0.2,0.4-0.4,0.6c-0.2,0.2-0.4,0.3-0.6,0.4c-0.2,0.1-0.5,0.1-0.8,0.1
		c-0.4,0-0.8-0.1-1.1-0.3c-0.3-0.2-0.6-0.4-0.8-0.7L79.5,34z"/>
</g>
<g>
	<defs>
		<rect id="SVGID_57_" x="0" y="0" width="158.9" height="35.4"/>
	</defs>
	<clipPath id="SVGID_58_">
		<use xlink:href="#SVGID_57_"  style="overflow:visible;"/>
	</clipPath>
	<path class="st28" d="M79.5,34c0.2,0.2,0.3,0.4,0.6,0.6c0.2,0.1,0.5,0.2,0.8,0.2c0.2,0,0.4,0,0.5-0.1c0.2-0.1,0.3-0.1,0.5-0.3
		c0.1-0.1,0.2-0.2,0.3-0.4c0.1-0.1,0.1-0.3,0.1-0.5c0-0.2,0-0.3-0.1-0.5c-0.1-0.1-0.2-0.3-0.3-0.4c-0.1-0.1-0.3-0.2-0.4-0.3
		s-0.3-0.1-0.5-0.2c-0.3,0-0.5-0.1-0.8-0.2c-0.2-0.1-0.4-0.2-0.6-0.4c-0.2-0.2-0.3-0.4-0.4-0.6c-0.1-0.2-0.1-0.4-0.1-0.7
		c0-0.3,0.1-0.5,0.2-0.7c0.1-0.2,0.3-0.4,0.4-0.6s0.4-0.3,0.6-0.4c0.2-0.1,0.5-0.1,0.8-0.1c0.4,0,0.7,0.1,1,0.2
		c0.3,0.1,0.5,0.3,0.8,0.6l-0.4,0.3c-0.2-0.2-0.3-0.3-0.6-0.5c-0.2-0.1-0.5-0.2-0.8-0.2c-0.2,0-0.4,0-0.6,0.1
		c-0.2,0.1-0.3,0.2-0.5,0.3c-0.1,0.1-0.3,0.2-0.3,0.4c-0.1,0.2-0.1,0.3-0.1,0.5c0,0.2,0,0.3,0.1,0.5c0.1,0.2,0.2,0.3,0.3,0.4
		s0.3,0.2,0.5,0.3c0.2,0.1,0.4,0.1,0.6,0.1c0.3,0,0.5,0.1,0.7,0.2c0.2,0.1,0.4,0.2,0.6,0.4c0.2,0.2,0.3,0.3,0.4,0.5
		c0.1,0.2,0.1,0.4,0.1,0.6c0,0.2-0.1,0.5-0.2,0.7c-0.1,0.2-0.2,0.4-0.4,0.6c-0.2,0.2-0.4,0.3-0.6,0.4c-0.2,0.1-0.5,0.1-0.8,0.1
		c-0.4,0-0.8-0.1-1.1-0.3c-0.3-0.2-0.6-0.4-0.8-0.7L79.5,34z"/>
</g>
<g>
	<defs>
		<rect id="SVGID_59_" x="0" y="0" width="159" height="35.4"/>
	</defs>
	<clipPath id="SVGID_60_">
		<use xlink:href="#SVGID_59_"  style="overflow:visible;"/>
	</clipPath>
	<polygon class="st29" points="86.4,29.2 86.4,35.2 85.8,35.2 85.8,29.2 83.7,29.2 83.7,28.7 88.4,28.7 88.4,29.2 	"/>
</g>
<g>
	<defs>
		<rect id="SVGID_61_" x="0" y="0" width="158.9" height="35.4"/>
	</defs>
	<clipPath id="SVGID_62_">
		<use xlink:href="#SVGID_61_"  style="overflow:visible;"/>
	</clipPath>
	<polygon class="st30" points="86.4,29.2 86.4,35.2 85.8,35.2 85.8,29.2 83.7,29.2 83.7,28.7 88.4,28.7 88.4,29.2 	"/>
</g>
<g>
	<defs>
		<rect id="SVGID_63_" x="0" y="0" width="159" height="35.4"/>
	</defs>
	<clipPath id="SVGID_64_">
		<use xlink:href="#SVGID_63_"  style="overflow:visible;"/>
	</clipPath>
	<polygon class="st31" points="92.8,32 90,32 90,34.7 93.3,34.7 93.3,35.2 89.4,35.2 89.4,28.7 93.3,28.7 93.3,29.2 90,29.2 
		90,31.5 92.8,31.5 	"/>
</g>
<g>
	<defs>
		<rect id="SVGID_65_" x="0" y="0" width="158.9" height="35.4"/>
	</defs>
	<clipPath id="SVGID_66_">
		<use xlink:href="#SVGID_65_"  style="overflow:visible;"/>
	</clipPath>
	<polygon class="st32" points="92.8,32 90,32 90,34.7 93.3,34.7 93.3,35.2 89.4,35.2 89.4,28.7 93.3,28.7 93.3,29.2 90,29.2 
		90,31.5 92.8,31.5 	"/>
</g>
<g>
	<defs>
		<rect id="SVGID_67_" x="0" y="0" width="159" height="35.4"/>
	</defs>
	<clipPath id="SVGID_68_">
		<use xlink:href="#SVGID_67_"  style="overflow:visible;"/>
	</clipPath>
	<path class="st33" d="M95,32.1v3.1h-0.5v-6.5h1.9c0.3,0,0.5,0,0.7,0.1c0.2,0.1,0.4,0.2,0.6,0.4s0.3,0.3,0.4,0.5
		c0.1,0.2,0.1,0.4,0.1,0.6c0,0.2,0,0.5-0.1,0.7c-0.1,0.2-0.2,0.4-0.4,0.5c-0.2,0.2-0.4,0.3-0.6,0.4C96.9,32,96.7,32,96.4,32h-0.8
		c0.5,0.5,0.9,1.1,1.4,1.6c0.5,0.6,1,1.1,1.4,1.6h-0.7L95,32.1z M95,29.2v2.3h1.4c0.2,0,0.4,0,0.5-0.1c0.2-0.1,0.3-0.1,0.4-0.2
		c0.1-0.1,0.2-0.2,0.3-0.4c0.1-0.1,0.1-0.3,0.1-0.5c0-0.2,0-0.3-0.1-0.4c-0.1-0.1-0.2-0.3-0.3-0.4c-0.1-0.1-0.3-0.2-0.4-0.3
		c-0.2-0.1-0.3-0.1-0.5-0.1H95z"/>
</g>
<g>
	<defs>
		<rect id="SVGID_69_" x="0" y="0" width="158.9" height="35.4"/>
	</defs>
	<clipPath id="SVGID_70_">
		<use xlink:href="#SVGID_69_"  style="overflow:visible;"/>
	</clipPath>
	<path class="st34" d="M95,32.1v3.1h-0.5v-6.5h1.9c0.3,0,0.5,0,0.7,0.1c0.2,0.1,0.4,0.2,0.6,0.4s0.3,0.3,0.4,0.5
		c0.1,0.2,0.1,0.4,0.1,0.6c0,0.2,0,0.5-0.1,0.7c-0.1,0.2-0.2,0.4-0.4,0.5c-0.2,0.2-0.4,0.3-0.6,0.4C96.9,32,96.7,32,96.4,32h-0.8
		c0.5,0.5,0.9,1.1,1.4,1.6c0.5,0.6,1,1.1,1.4,1.6h-0.7L95,32.1z M95,29.2v2.3h1.4c0.2,0,0.4,0,0.5-0.1c0.2-0.1,0.3-0.1,0.4-0.2
		c0.1-0.1,0.2-0.2,0.3-0.4c0.1-0.1,0.1-0.3,0.1-0.5c0-0.2,0-0.3-0.1-0.4c-0.1-0.1-0.2-0.3-0.3-0.4c-0.1-0.1-0.3-0.2-0.4-0.3
		c-0.2-0.1-0.3-0.1-0.5-0.1H95z"/>
</g>
<g>
	<defs>
		<rect id="SVGID_71_" x="0" y="0" width="159" height="35.4"/>
	</defs>
	<clipPath id="SVGID_72_">
		<use xlink:href="#SVGID_71_"  style="overflow:visible;"/>
	</clipPath>
	<path class="st35" d="M106.2,30c-0.2-0.2-0.5-0.4-0.8-0.6c-0.3-0.1-0.6-0.2-0.9-0.2c-0.3,0-0.6,0.1-0.9,0.2
		c-0.3,0.1-0.6,0.3-0.8,0.6c-0.2,0.3-0.4,0.5-0.5,0.9c-0.1,0.3-0.2,0.7-0.2,1.1c0,0.4,0.1,0.7,0.2,1.1c0.1,0.3,0.3,0.6,0.5,0.9
		c0.2,0.3,0.5,0.5,0.8,0.6c0.3,0.2,0.6,0.2,1,0.2c0.3,0,0.6-0.1,0.9-0.2c0.3-0.1,0.6-0.3,0.8-0.6l0.4,0.3c-0.3,0.3-0.6,0.5-1,0.7
		c-0.4,0.2-0.7,0.3-1.1,0.3c-0.4,0-0.8-0.1-1.1-0.3c-0.4-0.2-0.7-0.4-1-0.7c-0.3-0.3-0.5-0.7-0.7-1.1c-0.2-0.4-0.2-0.8-0.2-1.3
		c0-0.4,0.1-0.9,0.2-1.3c0.2-0.4,0.4-0.8,0.6-1.1c0.3-0.3,0.6-0.5,0.9-0.7c0.4-0.2,0.7-0.3,1.2-0.3c0.4,0,0.8,0.1,1.1,0.3
		c0.4,0.2,0.7,0.4,0.9,0.7L106.2,30z"/>
</g>
<g>
	<defs>
		<rect id="SVGID_73_" x="0" y="0" width="158.9" height="35.4"/>
	</defs>
	<clipPath id="SVGID_74_">
		<use xlink:href="#SVGID_73_"  style="overflow:visible;"/>
	</clipPath>
	<path class="st36" d="M106.2,30c-0.2-0.2-0.5-0.4-0.8-0.6c-0.3-0.1-0.6-0.2-0.9-0.2c-0.3,0-0.6,0.1-0.9,0.2
		c-0.3,0.1-0.6,0.3-0.8,0.6c-0.2,0.3-0.4,0.5-0.5,0.9c-0.1,0.3-0.2,0.7-0.2,1.1c0,0.4,0.1,0.7,0.2,1.1c0.1,0.3,0.3,0.6,0.5,0.9
		c0.2,0.3,0.5,0.5,0.8,0.6c0.3,0.2,0.6,0.2,1,0.2c0.3,0,0.6-0.1,0.9-0.2c0.3-0.1,0.6-0.3,0.8-0.6l0.4,0.3c-0.3,0.3-0.6,0.5-1,0.7
		c-0.4,0.2-0.7,0.3-1.1,0.3c-0.4,0-0.8-0.1-1.1-0.3c-0.4-0.2-0.7-0.4-1-0.7c-0.3-0.3-0.5-0.7-0.7-1.1c-0.2-0.4-0.2-0.8-0.2-1.3
		c0-0.4,0.1-0.9,0.2-1.3c0.2-0.4,0.4-0.8,0.6-1.1c0.3-0.3,0.6-0.5,0.9-0.7c0.4-0.2,0.7-0.3,1.2-0.3c0.4,0,0.8,0.1,1.1,0.3
		c0.4,0.2,0.7,0.4,0.9,0.7L106.2,30z"/>
</g>
<g>
	<defs>
		<rect id="SVGID_75_" x="0" y="0" width="159" height="35.4"/>
	</defs>
	<clipPath id="SVGID_76_">
		<use xlink:href="#SVGID_75_"  style="overflow:visible;"/>
	</clipPath>
	<path class="st37" d="M112.3,34.4c-0.3,0.3-0.6,0.5-0.9,0.7c-0.3,0.2-0.7,0.2-1.1,0.2c-0.4,0-0.8-0.1-1.1-0.3
		c-0.4-0.2-0.7-0.4-1-0.7c-0.3-0.3-0.5-0.7-0.6-1.1c-0.2-0.4-0.2-0.9-0.2-1.3c0-0.5,0.1-0.9,0.2-1.3c0.2-0.4,0.4-0.8,0.6-1.1
		c0.3-0.3,0.6-0.5,1-0.7c0.4-0.2,0.7-0.3,1.2-0.3c0.4,0,0.8,0.1,1.2,0.3c0.4,0.2,0.7,0.4,0.9,0.7c0.3,0.3,0.5,0.6,0.6,1.1
		c0.2,0.4,0.2,0.8,0.2,1.3c0,0.5-0.1,0.9-0.2,1.4C112.8,33.7,112.5,34.1,112.3,34.4 M111.9,29.9c-0.2-0.2-0.5-0.4-0.8-0.5
		c-0.3-0.1-0.6-0.2-0.9-0.2c-0.3,0-0.7,0.1-1,0.2c-0.3,0.1-0.6,0.3-0.8,0.6c-0.2,0.2-0.4,0.5-0.5,0.9c-0.1,0.3-0.2,0.7-0.2,1.1
		c0,0.4,0.1,0.8,0.2,1.1c0.1,0.3,0.3,0.6,0.5,0.9c0.2,0.3,0.5,0.5,0.8,0.6c0.3,0.1,0.6,0.2,1,0.2c0.4,0,0.7-0.1,1-0.2
		c0.3-0.1,0.6-0.3,0.8-0.6c0.2-0.3,0.4-0.6,0.5-0.9c0.1-0.3,0.2-0.7,0.2-1.1c0-0.4-0.1-0.8-0.2-1.1
		C112.3,30.5,112.1,30.2,111.9,29.9"/>
</g>
<g>
	<defs>
		<rect id="SVGID_77_" x="0" y="0" width="158.9" height="35.4"/>
	</defs>
	<clipPath id="SVGID_78_">
		<use xlink:href="#SVGID_77_"  style="overflow:visible;"/>
	</clipPath>
	<path class="st38" d="M112.3,34.4c-0.3,0.3-0.6,0.5-0.9,0.7c-0.3,0.2-0.7,0.2-1.1,0.2c-0.4,0-0.8-0.1-1.1-0.3
		c-0.4-0.2-0.7-0.4-1-0.7c-0.3-0.3-0.5-0.7-0.6-1.1c-0.2-0.4-0.2-0.9-0.2-1.3c0-0.5,0.1-0.9,0.2-1.3c0.2-0.4,0.4-0.8,0.6-1.1
		c0.3-0.3,0.6-0.5,1-0.7c0.4-0.2,0.7-0.3,1.2-0.3c0.4,0,0.8,0.1,1.2,0.3c0.4,0.2,0.7,0.4,0.9,0.7c0.3,0.3,0.5,0.6,0.6,1.1
		c0.2,0.4,0.2,0.8,0.2,1.3c0,0.5-0.1,0.9-0.2,1.4C112.8,33.7,112.5,34.1,112.3,34.4z M111.9,29.9c-0.2-0.2-0.5-0.4-0.8-0.5
		c-0.3-0.1-0.6-0.2-0.9-0.2c-0.3,0-0.7,0.1-1,0.2c-0.3,0.1-0.6,0.3-0.8,0.6c-0.2,0.2-0.4,0.5-0.5,0.9c-0.1,0.3-0.2,0.7-0.2,1.1
		c0,0.4,0.1,0.8,0.2,1.1c0.1,0.3,0.3,0.6,0.5,0.9c0.2,0.3,0.5,0.5,0.8,0.6c0.3,0.1,0.6,0.2,1,0.2c0.4,0,0.7-0.1,1-0.2
		c0.3-0.1,0.6-0.3,0.8-0.6c0.2-0.3,0.4-0.6,0.5-0.9c0.1-0.3,0.2-0.7,0.2-1.1c0-0.4-0.1-0.8-0.2-1.1
		C112.3,30.5,112.1,30.2,111.9,29.9z"/>
</g>
<g>
	<defs>
		<rect id="SVGID_79_" x="0" y="0" width="159" height="35.4"/>
	</defs>
	<clipPath id="SVGID_80_">
		<use xlink:href="#SVGID_79_"  style="overflow:visible;"/>
	</clipPath>
	<path class="st39" d="M114.7,33.6c0,0.2,0.1,0.3,0.2,0.5c0.1,0.1,0.3,0.3,0.4,0.4c0.2,0.1,0.4,0.2,0.6,0.3c0.2,0.1,0.5,0.1,0.7,0.1
		c0.2,0,0.5,0,0.7-0.1c0.2-0.1,0.4-0.2,0.6-0.3c0.2-0.1,0.3-0.2,0.4-0.4c0.1-0.1,0.2-0.3,0.2-0.5v-4.9h0.5v4.9
		c0,0.2-0.1,0.5-0.2,0.7c-0.1,0.2-0.3,0.4-0.5,0.6c-0.2,0.2-0.5,0.3-0.8,0.4c-0.3,0.1-0.6,0.1-0.9,0.1c-0.3,0-0.6,0-0.9-0.1
		c-0.3-0.1-0.5-0.2-0.8-0.4c-0.2-0.2-0.4-0.3-0.5-0.6c-0.1-0.2-0.2-0.4-0.2-0.7v-4.9h0.5V33.6z"/>
</g>
<g>
	<defs>
		<rect id="SVGID_81_" x="0" y="0" width="158.9" height="35.4"/>
	</defs>
	<clipPath id="SVGID_82_">
		<use xlink:href="#SVGID_81_"  style="overflow:visible;"/>
	</clipPath>
	<path class="st40" d="M114.7,33.6c0,0.2,0.1,0.3,0.2,0.5c0.1,0.1,0.3,0.3,0.4,0.4c0.2,0.1,0.4,0.2,0.6,0.3c0.2,0.1,0.5,0.1,0.7,0.1
		c0.2,0,0.5,0,0.7-0.1c0.2-0.1,0.4-0.2,0.6-0.3c0.2-0.1,0.3-0.2,0.4-0.4c0.1-0.1,0.2-0.3,0.2-0.5v-4.9h0.5v4.9
		c0,0.2-0.1,0.5-0.2,0.7c-0.1,0.2-0.3,0.4-0.5,0.6c-0.2,0.2-0.5,0.3-0.8,0.4c-0.3,0.1-0.6,0.1-0.9,0.1c-0.3,0-0.6,0-0.9-0.1
		c-0.3-0.1-0.5-0.2-0.8-0.4c-0.2-0.2-0.4-0.3-0.5-0.6c-0.1-0.2-0.2-0.4-0.2-0.7v-4.9h0.5V33.6z"/>
</g>
<g>
	<defs>
		<rect id="SVGID_83_" x="0" y="0" width="159" height="35.4"/>
	</defs>
	<clipPath id="SVGID_84_">
		<use xlink:href="#SVGID_83_"  style="overflow:visible;"/>
	</clipPath>
	<polygon class="st41" points="120.8,28.7 124.1,34.1 124.1,28.7 124.6,28.7 124.6,35.2 124.1,35.2 120.9,29.7 120.9,35.2 
		120.4,35.2 120.4,28.7 	"/>
</g>
<g>
	<defs>
		<rect id="SVGID_85_" x="0" y="0" width="158.9" height="35.4"/>
	</defs>
	<clipPath id="SVGID_86_">
		<use xlink:href="#SVGID_85_"  style="overflow:visible;"/>
	</clipPath>
	<polygon class="st42" points="120.8,28.7 124.1,34.1 124.1,28.7 124.6,28.7 124.6,35.2 124.1,35.2 120.9,29.7 120.9,35.2 
		120.4,35.2 120.4,28.7 	"/>
</g>
<g>
	<defs>
		<rect id="SVGID_87_" x="0" y="0" width="159" height="35.4"/>
	</defs>
	<clipPath id="SVGID_88_">
		<use xlink:href="#SVGID_87_"  style="overflow:visible;"/>
	</clipPath>
	<polygon class="st43" points="128.3,29.2 128.3,35.2 127.8,35.2 127.8,29.2 125.7,29.2 125.7,28.7 130.4,28.7 130.4,29.2 	"/>
</g>
<g>
	<defs>
		<rect id="SVGID_89_" x="0" y="0" width="158.9" height="35.4"/>
	</defs>
	<clipPath id="SVGID_90_">
		<use xlink:href="#SVGID_89_"  style="overflow:visible;"/>
	</clipPath>
	<polygon class="st44" points="128.3,29.2 128.3,35.2 127.8,35.2 127.8,29.2 125.7,29.2 125.7,28.7 130.4,28.7 130.4,29.2 	"/>
</g>
<g>
	<defs>
		<rect id="SVGID_91_" x="0" y="0" width="159" height="35.4"/>
	</defs>
	<clipPath id="SVGID_92_">
		<use xlink:href="#SVGID_91_"  style="overflow:visible;"/>
	</clipPath>
	<path class="st45" d="M137.2,28.7l-2.7,3.6v2.9H134v-2.9c-0.2-0.3-0.4-0.6-0.7-0.9c-0.2-0.3-0.5-0.6-0.7-0.9
		c-0.2-0.3-0.5-0.6-0.7-0.9c-0.2-0.3-0.4-0.6-0.7-0.9h0.7l2.3,3.1c0.4-0.5,0.8-1,1.1-1.5c0.4-0.5,0.8-1,1.1-1.5H137.2z"/>
</g>
<g>
	<defs>
		<rect id="SVGID_93_" x="0" y="0" width="158.9" height="35.4"/>
	</defs>
	<clipPath id="SVGID_94_">
		<use xlink:href="#SVGID_93_"  style="overflow:visible;"/>
	</clipPath>
	<path class="st46" d="M137.2,28.7l-2.7,3.6v2.9H134v-2.9c-0.2-0.3-0.4-0.6-0.7-0.9c-0.2-0.3-0.5-0.6-0.7-0.9
		c-0.2-0.3-0.5-0.6-0.7-0.9c-0.2-0.3-0.4-0.6-0.7-0.9h0.7l2.3,3.1c0.4-0.5,0.8-1,1.1-1.5c0.4-0.5,0.8-1,1.1-1.5H137.2z"/>
</g>
<g>
	<defs>
		<rect id="SVGID_95_" x="0" width="158.9" height="35.4"/>
	</defs>
	<clipPath id="SVGID_96_">
		<use xlink:href="#SVGID_95_"  style="overflow:visible;"/>
	</clipPath>
	<path class="st47" d="M2.3,10.4c0,0,0.1-1.8-0.7-2.4C1,7.6,0,7.8,0,7.8s1,0.9,0.8,2c-0.2,1.1-1,3.4-0.6,5.2
		c0.8,3.3,2.3,5.6,6.9,5.6c0-0.3-3.9-1.8-4.2-4.7c-0.2-1.7,0.5-3.3,2.1-4.1c-0.5,2.2-0.3,3.4,0.3,5c1.2,2.9,3.9,3.7,3.9,3.7
		s-1-1.2-1.4-1.8c-1.3-2,0.5-4.1,1.6-4.7c1.4-0.7,2.4-0.9,2.5-2.4c0.2,0.6,1.2,1.9,0.1,3.3c-1,1.2-1.6,0.8-2.2,2
		c-0.4,0.7-0.6,1.7-0.3,2.3c0.1,0.4,0.8,1.2,1.8,1.2c1.4-1.8,3.1-0.9,5.2-1.8c1.7-0.7,2.2-3,2.1-3.3c-0.1,0.6-0.9,1.4-1.8,1.6
		c-1.1,0.2-1.4-0.5-2-0.5c-0.8,0-2.1,0.3-2.4,1c-0.2,0,0.7-2,2.7-2c1.3,0,1.7-0.2,2.5-0.9c0.9-0.9,1.1-2.3,1.3-2.8
		c0.3-0.8,0.9-1.5,1.8-1.6c-0.8-0.8-1.6-0.8-2.3-0.3c-1,0.7-1.3,2.1-2.3,3c-0.9,0.9-1.9,0.9-1.9,0.9s0.2-1.6,1-2.3
		c0.8-0.6,1.8-1.3,2.1-2.2c0.3-1-0.4-1.7-0.7-3c-0.3-1.2,0.5-2.6,0.5-2.6c-0.7,0.1-1.5,0.8-1.9,1.6c-0.4,0.8,0,2.6-0.8,3.2
		c-1,0.8-1.6,0.1-3.7,1c-1.7,0.7-3.1,2.2-3.1,2.2s-0.8-1.4,3.7-3.5c1.2-0.6,2.2-1.1,2.4-2.2c0.2-1.1-0.5-1.8-0.5-1.8s0.3,0.8,0,1.2
		c-0.4,0.6-1.4,0.6-2.3,0.8C11.2,6,12,5.6,12.2,3.4c0.2-2.2-2.1-3.7-1.8-3.4c0.4,0.4,0.7,2-0.5,2.8C8.4,4,4.9,4.1,3.7,5.7
		C3.3,6.1,2.8,7.7,4,8.2C3.7,9,2.5,9.5,2.3,10.4"/>
</g>
<g>
	<defs>
		<rect id="SVGID_97_" width="159" height="35.4"/>
	</defs>
	<clipPath id="SVGID_98_">
		<use xlink:href="#SVGID_97_"  style="overflow:visible;"/>
	</clipPath>
	<rect x="3.1" y="21.4" class="st48" width="11.9" height="1.7"/>
	<path class="st48" d="M4,23.7H14c0,0-0.8,2.7-5.3,2.7C4.9,26.5,4,23.7,4,23.7"/>
	<path class="st48" d="M6.3,26.6c0,0,0.9,8.7,2.7,8.7c1.8,0,2.6-8.7,2.6-8.7S9.1,27.5,6.3,26.6"/>
</g>
</svg>
