<?xml version="1.0" ?><!DOCTYPE svg  PUBLIC '-//W3C//DTD SVG 1.1//EN'  'http://www.w3.org/Graphics/SVG/1.1/DTD/svg11.dtd'><svg height="64px" style="enable-background:new 0 0 60 64;" version="1.1" viewBox="0 0 60 64" width="60px" xml:space="preserve" xmlns="http://www.w3.org/2000/svg" xmlns:xlink="http://www.w3.org/1999/xlink"><g id="_x32_3_x5F_cup_x5F_of_x5F_tea"><g><g><path d="M45,57h14c0,0-2,6-10,6     s-30,0-38,0S1,57,1,57h14" style="fill:none;stroke:#363F40;stroke-width:2;stroke-linejoin:round;stroke-miterlimit:10;"/><path d="M25,21h25c0,20-8,24-8,32H18c0-8-8-12-8-32h9" style="fill:none;stroke:#363F40;stroke-width:2;stroke-miterlimit:10;"/><path d="M55,47V27h1c1.656,0,3,1.343,3,3v8v6     c0,1.657-1.344,3-3,3H55z" style="fill:none;stroke:#363F40;stroke-width:2;stroke-miterlimit:10;"/><line style="fill:none;stroke:#363F40;stroke-width:2;stroke-miterlimit:10;" x1="22" x2="22" y1="20" y2="27"/><rect height="8" style="fill:none;stroke:#363F40;stroke-width:2;stroke-miterlimit:10;" width="6" x="19" y="27"/><line style="fill:none;stroke:#363F40;stroke-width:2;stroke-miterlimit:10;" x1="55" x2="50" y1="27" y2="27"/><line style="fill:none;stroke:#363F40;stroke-width:2;stroke-miterlimit:10;" x1="55" x2="44" y1="47" y2="47"/><polyline points="18,53 18,57 42,57 42,53    " style="fill:none;stroke:#363F40;stroke-width:2;stroke-miterlimit:10;"/><line style="fill:none;stroke:#363F40;stroke-width:2;stroke-miterlimit:10;" x1="29" x2="31" y1="49" y2="49"/><line style="fill:none;stroke:#363F40;stroke-width:2;stroke-miterlimit:10;" x1="25" x2="27" y1="49" y2="49"/><line style="fill:none;stroke:#363F40;stroke-width:2;stroke-miterlimit:10;" x1="33" x2="35" y1="49" y2="49"/><path d="M36,0c0,1.656-1.344,3-3,3H18     c-1.656,0-3,1.344-3,3s1.344,3,3,3h23c1.656,0,3,1.344,3,3s-1.344,3-3,3h-6c-1.656,0-3,1.344-3,3" style="fill:none;stroke:#363F40;stroke-width:2;stroke-miterlimit:10;"/><path d="M24,3c-1.656,0-3,1.344-3,3s1.344,3,3,3" style="fill:none;stroke:#363F40;stroke-width:2;stroke-miterlimit:10;"/><path d="M36,15h-7c-1.656,0-3,1.344-3,3" style="fill:none;stroke:#363F40;stroke-width:2;stroke-miterlimit:10;"/></g></g></g><g id="Layer_1"/></svg>